<svg width="137" height="51" viewBox="0 0 137 51" fill="none" xmlns="http://www.w3.org/2000/svg">
<path d="M0 19.4485L132.453 -2.14169e-05L130.14 14.4324L136.502 27.5738L4.04876 47.0223L7.46504 31.602L0 19.4485Z" fill="url(#paint0_linear_30278_37131)"/>
<g filter="url(#filter0_d_30278_37131)">
<path d="M119.748 9.94593C119.772 10.1074 119.785 10.2745 119.788 10.4471C119.789 10.6121 119.801 10.7715 119.824 10.9253L119.848 11.0868C119.855 11.1329 119.87 11.1779 119.892 11.2218C119.86 11.5332 119.848 11.8456 119.855 12.159C119.862 12.4647 119.858 12.7798 119.843 13.1043C119.836 13.3177 119.821 13.5322 119.798 13.7479C119.791 13.804 119.78 13.8608 119.765 13.918C119.757 13.9742 119.75 14.0303 119.743 14.0864C119.736 14.1503 119.731 14.2179 119.726 14.2895C119.728 14.3598 119.727 14.4269 119.721 14.4907C119.702 14.6272 119.683 14.7637 119.664 14.9002C119.644 15.029 119.624 15.1617 119.606 15.2982C119.571 15.5392 119.528 15.7815 119.478 16.0248C119.436 16.267 119.397 16.5087 119.363 16.7498C119.328 16.9908 119.306 17.234 119.295 17.4793C119.285 17.7246 119.297 17.9665 119.333 18.2049C119.339 18.2434 119.364 18.2789 119.408 18.3116C119.459 18.3355 119.513 18.3588 119.572 18.3815C119.63 18.4042 119.688 18.4269 119.747 18.4496C119.812 18.4635 119.858 18.4802 119.884 18.4998L119.9 18.6036C119.917 18.719 119.908 18.8147 119.872 18.8909C119.835 18.9593 119.789 19.0212 119.735 19.0765C119.68 19.1319 119.621 19.1878 119.559 19.2443C119.505 19.2996 119.464 19.3686 119.437 19.4513C119.413 19.4471 119.385 19.4434 119.353 19.4403C119.321 19.4372 119.289 19.438 119.259 19.4426C119.182 19.4541 119.108 19.4848 119.037 19.5348C118.973 19.5836 118.899 19.6143 118.814 19.627C118.73 19.6397 118.655 19.6154 118.591 19.5543C118.526 19.4854 118.452 19.4375 118.369 19.4106C118.332 19.2118 118.268 19.0247 118.179 18.8493C118.097 18.6651 118.04 18.473 118.01 18.2731C117.986 18.1116 117.98 17.9945 117.993 17.9218C118.014 17.848 118.048 17.7367 118.097 17.5879C118.093 17.5649 118.086 17.5424 118.075 17.5204C118.071 17.4974 118.068 17.4743 118.064 17.4512C118.047 17.3359 118.046 17.2259 118.062 17.1213C118.084 17.0079 118.083 16.8941 118.058 16.7799C118.125 16.5969 118.171 16.4052 118.196 16.2049C118.229 16.0034 118.258 15.8026 118.283 15.6022C118.307 15.3942 118.336 15.1933 118.37 14.9996C118.402 14.7981 118.461 14.6085 118.544 14.4309C118.533 14.3067 118.539 14.1879 118.561 14.0745C118.584 13.9611 118.586 13.8467 118.569 13.7313C118.559 13.6621 118.537 13.5985 118.505 13.5404C118.575 13.4278 118.605 13.2896 118.596 13.1258C118.588 12.962 118.57 12.8153 118.542 12.6857C118.568 12.5953 118.582 12.5067 118.585 12.4198C118.594 12.3241 118.607 12.2278 118.624 12.1309C118.62 12.1001 118.611 12.0699 118.599 12.0403C118.594 12.0095 118.59 11.9788 118.585 11.948C118.559 11.7711 118.552 11.5952 118.565 11.4203C118.586 11.2442 118.583 11.0677 118.557 10.8908C118.522 10.6601 118.429 10.4853 118.278 10.3665C118.265 10.3369 118.257 10.3067 118.252 10.2759L118.237 10.1721C118.216 10.0337 118.22 9.89946 118.247 9.76951C118.282 9.63072 118.285 9.49268 118.256 9.3554C118.327 9.30544 118.395 9.2599 118.46 9.21878C118.532 9.17651 118.611 9.14905 118.695 9.13639C118.88 9.10877 119.051 9.14997 119.209 9.25999C119.367 9.37001 119.512 9.47407 119.645 9.57216C119.693 9.68291 119.727 9.80751 119.748 9.94593ZM120.926 22.861C120.932 22.8995 120.933 22.9346 120.93 22.9666C120.928 23.0062 120.922 23.0463 120.913 23.0871C120.811 23.1417 120.707 23.1847 120.602 23.2162C120.505 23.2542 120.405 23.2967 120.302 23.3435C120.251 23.422 120.204 23.5036 120.162 23.5886C120.129 23.6801 120.056 23.746 119.944 23.7864C119.774 23.7567 119.629 23.6763 119.507 23.5451C119.393 23.4128 119.322 23.2582 119.296 23.0813C119.273 22.9275 119.282 22.8043 119.323 22.7117C119.366 22.6267 119.417 22.5521 119.478 22.4879C119.541 22.4314 119.595 22.3722 119.641 22.3103C119.686 22.2485 119.702 22.1714 119.689 22.0791C119.726 22.0656 119.771 22.0549 119.825 22.0468C119.933 22.0307 120.023 22.0565 120.096 22.1242C120.17 22.1996 120.247 22.2667 120.327 22.3256C120.38 22.3648 120.436 22.3996 120.496 22.43C120.564 22.467 120.625 22.505 120.678 22.5443C120.74 22.5901 120.794 22.637 120.841 22.6851C120.887 22.7331 120.916 22.7918 120.926 22.861Z" fill="white"/>
</g>
<g filter="url(#filter1_d_30278_37131)">
<path d="M115.077 12.7795C115.076 12.8741 115.065 12.9583 115.044 13.0322C115.031 13.0971 115.039 13.1823 115.071 13.2877C114.995 13.3069 114.938 13.343 114.898 13.396C114.866 13.4402 114.838 13.4916 114.815 13.55C114.8 13.6073 114.782 13.669 114.76 13.7351C114.745 13.7924 114.722 13.847 114.691 13.8989C114.794 14.1665 114.87 14.4421 114.92 14.7255C114.971 15.0089 115.032 15.2867 115.104 15.5589C115.196 15.9069 115.306 16.2482 115.434 16.5828C115.57 16.9085 115.664 17.2482 115.717 17.602C115.733 17.7097 115.744 17.8102 115.75 17.9037C115.764 17.9959 115.778 18.0921 115.793 18.192C115.802 18.2536 115.812 18.3189 115.822 18.3882C115.839 18.4485 115.852 18.5095 115.862 18.571C115.895 18.794 115.898 19.0216 115.869 19.2539C115.849 19.485 115.84 19.7143 115.843 19.9419C115.763 20.0403 115.696 20.1447 115.642 20.255C115.595 20.3642 115.544 20.4663 115.487 20.5612C115.431 20.6562 115.361 20.7413 115.278 20.8167C115.196 20.8997 115.087 20.9631 114.952 21.0069C114.941 21.0873 114.903 21.1518 114.84 21.2006C114.784 21.2483 114.738 21.3102 114.702 21.3863L114.679 21.3898C114.487 21.4185 114.318 21.4164 114.171 21.3832C114.025 21.3501 113.885 21.3082 113.751 21.2574C113.626 21.2054 113.496 21.1502 113.361 21.0917C113.226 21.0332 113.075 20.993 112.907 20.971C112.665 20.8264 112.44 20.6634 112.232 20.4823C112.023 20.2934 111.794 20.1311 111.546 19.9953C111.469 19.8495 111.377 19.7335 111.27 19.6474C111.17 19.5601 111.068 19.4574 110.964 19.3393C110.918 19.2912 110.879 19.2458 110.849 19.2031C110.827 19.1593 110.796 19.1089 110.756 19.052C110.724 18.9939 110.679 18.9574 110.622 18.9424C110.572 18.9262 110.526 18.9056 110.483 18.8806C110.385 18.6514 110.264 18.4455 110.119 18.2628C109.974 18.0801 109.81 17.908 109.629 17.7464C109.595 17.8379 109.571 17.936 109.555 18.0405C109.546 18.1363 109.537 18.2359 109.529 18.3393C109.52 18.435 109.503 18.5358 109.48 18.6415C109.463 18.7384 109.433 18.8293 109.391 18.9143L109.396 18.9489C109.402 18.9873 109.421 19.0081 109.453 19.0112C109.484 19.0143 109.503 19.035 109.509 19.0735C109.51 19.0812 109.507 19.0894 109.501 19.0983C109.502 19.106 109.503 19.1137 109.504 19.1214C109.471 19.1579 109.446 19.2009 109.429 19.2505C109.421 19.299 109.386 19.3316 109.326 19.3485C109.34 19.3858 109.349 19.4237 109.355 19.4622L109.37 19.566C109.404 19.789 109.41 20.0161 109.39 20.2471C109.377 20.4771 109.388 20.7074 109.422 20.9381L109.445 21.0881C109.453 21.1419 109.464 21.1913 109.479 21.2363C109.501 21.2801 109.531 21.3228 109.569 21.3644C109.606 21.4059 109.628 21.4459 109.634 21.4844C109.642 21.5382 109.626 21.5916 109.587 21.6447C109.647 21.6751 109.715 21.7082 109.791 21.744C109.867 21.7797 109.936 21.8205 109.998 21.8663C110.068 21.9186 110.128 21.9727 110.175 22.0284C110.224 22.0919 110.254 22.1621 110.266 22.239C110.285 22.3697 110.257 22.4683 110.18 22.5348C110.104 22.6013 110.006 22.6591 109.888 22.7083C109.777 22.7563 109.658 22.8017 109.531 22.8443C109.412 22.8935 109.316 22.959 109.242 23.0409L109.207 23.0461C109.115 23.0599 109.042 23.0433 108.987 22.9964C108.933 22.9495 108.86 22.9329 108.768 22.9467C108.586 22.7302 108.446 22.476 108.347 22.1841C108.249 21.8999 108.18 21.6232 108.14 21.3541C108.091 21.0234 108.072 20.6881 108.084 20.3482C108.088 20.0095 108.109 19.6723 108.145 19.3366C108.173 19.0021 108.21 18.6703 108.255 18.3412C108.307 18.0032 108.351 17.6664 108.387 17.3307L108.394 17.2944C108.388 17.2559 108.372 17.2308 108.347 17.2188C108.329 17.2057 108.318 17.1838 108.313 17.1531C108.311 17.1377 108.314 17.1294 108.322 17.1283C108.333 17.0479 108.345 16.9714 108.358 16.8987C108.378 16.8249 108.39 16.7446 108.393 16.6577C108.407 16.4354 108.405 16.2116 108.387 15.9863C108.375 15.7522 108.353 15.5236 108.319 15.3005C108.294 15.0764 108.268 14.8522 108.242 14.628C108.223 14.395 108.216 14.1641 108.221 13.9353C108.273 13.8646 108.321 13.7906 108.365 13.7133C108.408 13.6361 108.468 13.5642 108.545 13.4977C108.7 13.4824 108.857 13.4824 109.017 13.4978C109.176 13.5133 109.332 13.5529 109.483 13.6168C109.624 13.9337 109.735 14.2552 109.816 14.5813C109.904 14.9062 110.015 15.2277 110.149 15.5457L110.154 15.5803C110.16 15.6188 110.182 15.6351 110.22 15.6294C110.265 15.6148 110.302 15.6211 110.329 15.6484C110.317 15.6738 110.31 15.7024 110.307 15.7344C110.311 15.7651 110.316 15.7959 110.32 15.8266L110.35 16.0227C110.374 16.082 110.403 16.1445 110.437 16.2102C110.47 16.276 110.527 16.3108 110.606 16.3147C110.681 16.555 110.773 16.7732 110.881 16.9694C110.989 17.1655 111.107 17.3522 111.236 17.5295C111.365 17.7068 111.501 17.883 111.645 18.058C111.788 18.2253 111.937 18.4036 112.091 18.5928C112.305 18.7101 112.496 18.8546 112.663 19.0261C112.829 19.19 112.994 19.35 113.159 19.5061C113.331 19.6535 113.515 19.7793 113.711 19.8835C113.915 19.9866 114.166 20.0317 114.462 20.0187C114.496 19.9822 114.517 19.9359 114.524 19.8798L114.558 19.7096C114.573 19.6524 114.589 19.6028 114.606 19.5609C114.63 19.5101 114.667 19.4692 114.718 19.438C114.701 19.2204 114.683 18.9989 114.665 18.7736C114.655 18.5471 114.673 18.3282 114.72 18.1167C114.672 18.0532 114.64 17.9715 114.625 17.8715C114.613 17.7946 114.606 17.721 114.603 17.6506C114.608 17.5791 114.606 17.5088 114.595 17.4396C114.574 17.2934 114.525 17.1788 114.45 17.0958C114.442 17.0419 114.437 16.9875 114.437 16.9325C114.435 16.8699 114.45 16.8087 114.48 16.7491C114.396 16.6045 114.322 16.4505 114.258 16.2871C114.202 16.1225 114.16 15.9518 114.134 15.7749C114.119 15.6749 114.115 15.5694 114.122 15.4582C114.059 15.3498 114.008 15.2198 113.969 15.0683L113.852 14.6022C113.813 14.443 113.767 14.2965 113.716 14.1627C113.664 14.0289 113.59 13.926 113.493 13.8541C113.529 13.778 113.539 13.6938 113.526 13.6015C113.503 13.4477 113.458 13.305 113.391 13.1735C113.324 13.0419 113.279 12.8993 113.256 12.7455C113.24 12.6378 113.247 12.5267 113.277 12.4121C113.447 12.3945 113.615 12.389 113.782 12.3956C113.954 12.3933 114.121 12.3801 114.283 12.3559C114.338 12.4106 114.399 12.4525 114.467 12.4817C114.534 12.511 114.605 12.5396 114.68 12.5677C114.754 12.5881 114.824 12.613 114.892 12.6422C114.967 12.6703 115.029 12.7161 115.077 12.7795Z" fill="white"/>
</g>
<g filter="url(#filter2_d_30278_37131)">
<path d="M105.88 15.0758C105.845 15.1519 105.829 15.2328 105.834 15.3186C105.839 15.4043 105.847 15.4818 105.857 15.551C105.871 15.6433 105.885 15.7356 105.898 15.8279C105.919 15.9113 105.935 15.9953 105.948 16.0799L105.974 16.253C105.967 16.3091 105.952 16.3664 105.929 16.4248C105.906 16.4832 105.891 16.5405 105.884 16.5967C105.819 16.8973 105.807 17.1899 105.85 17.4745L105.854 17.4975C105.829 17.5956 105.803 17.6859 105.776 17.7686C105.757 17.8501 105.738 17.9316 105.718 18.0131C105.698 18.0869 105.686 18.1673 105.684 18.2542C105.68 18.3334 105.69 18.4263 105.714 18.5328C105.646 18.818 105.541 19.0854 105.397 19.3349C105.253 19.5767 105.113 19.8256 104.978 20.0817C104.826 20.1674 104.688 20.2706 104.565 20.3913C104.449 20.5108 104.339 20.6413 104.234 20.7828C104.007 20.8953 103.786 21.0189 103.57 21.1534C103.354 21.2879 103.167 21.4535 103.008 21.6504C102.864 21.6876 102.721 21.7325 102.58 21.7852C102.438 21.8378 102.303 21.9052 102.173 21.9875L102.035 22.0082C101.966 22.0185 101.914 22.0106 101.878 21.9845C101.786 22.0533 101.688 22.1073 101.584 22.1465C101.479 22.1779 101.372 22.2017 101.264 22.2179C101.126 22.2386 100.986 22.2516 100.846 22.2569C100.711 22.2534 100.573 22.2505 100.432 22.2481C100.339 22.152 100.219 22.0873 100.072 22.0542C99.9247 22.0134 99.793 21.9742 99.6773 21.9364C99.4082 21.6622 99.2024 21.3903 99.0599 21.1207C98.9161 20.8434 98.7634 20.5321 98.6017 20.1868C98.6009 20.0768 98.6123 19.969 98.6358 19.8632C98.6581 19.7498 98.6562 19.6322 98.6301 19.5103C98.7087 19.0896 98.8354 18.7011 99.01 18.3448C99.1913 17.9796 99.4056 17.6251 99.6529 17.2815C99.646 17.2353 99.6479 17.1957 99.6587 17.1626C99.6772 17.1284 99.6741 17.0817 99.6495 17.0225C99.6584 17.029 99.6743 17.0306 99.6974 17.0271C99.7589 17.0179 99.7951 16.9968 99.8059 16.9637C99.8155 16.923 99.813 16.8801 99.7984 16.8351C100.049 16.6168 100.268 16.3756 100.457 16.1115C100.653 15.8463 100.886 15.6149 101.155 15.4173C101.168 15.3447 101.197 15.2812 101.244 15.227C101.291 15.1728 101.325 15.1127 101.347 15.0465C101.583 14.9405 101.79 14.8033 101.969 14.6349C102.149 14.4666 102.342 14.3119 102.549 14.1709C102.661 14.0832 102.77 14.0198 102.874 13.9806C102.985 13.9326 103.103 13.8834 103.229 13.8331C103.273 13.8108 103.314 13.793 103.351 13.7795C103.388 13.7661 103.43 13.7559 103.476 13.749C103.615 13.7283 103.753 13.735 103.892 13.7693C104.03 13.7959 104.168 13.7988 104.306 13.7781C104.345 13.7724 104.375 13.7678 104.398 13.7643C104.428 13.752 104.458 13.7397 104.487 13.7274C104.642 13.8694 104.826 13.9677 105.039 14.0223C105.102 14.1308 105.171 14.2227 105.245 14.2981C105.327 14.3723 105.409 14.4466 105.491 14.5208C105.571 14.5873 105.646 14.6666 105.715 14.7585C105.79 14.8416 105.845 14.9473 105.88 15.0758ZM104.817 15.8483C104.811 15.8098 104.802 15.7758 104.789 15.7462C104.709 15.7346 104.631 15.7148 104.556 15.6867C104.481 15.6586 104.402 15.6509 104.317 15.6635C104.263 15.6716 104.211 15.6912 104.161 15.7223C104.145 15.6696 104.116 15.6346 104.074 15.6173C104.04 15.5988 103.999 15.5854 103.95 15.5769C103.908 15.5596 103.864 15.5505 103.817 15.5497C103.776 15.5401 103.738 15.5222 103.702 15.4961C103.67 15.438 103.634 15.3805 103.594 15.3236C103.561 15.2578 103.507 15.2147 103.433 15.1943C103.374 15.2739 103.302 15.3437 103.217 15.4036C103.13 15.4559 103.04 15.5087 102.946 15.5621C102.859 15.6144 102.774 15.6743 102.689 15.742C102.613 15.8085 102.55 15.8848 102.5 15.9709L102.292 16.002C102.259 16.0935 102.203 16.1686 102.125 16.2274C102.046 16.2785 101.982 16.3471 101.932 16.4332C101.818 16.5132 101.714 16.6074 101.62 16.7158C101.533 16.8153 101.447 16.9226 101.362 17.0375C101.276 17.1447 101.19 17.2558 101.105 17.3708C101.028 17.4846 100.942 17.5918 100.847 17.6925C100.779 17.9228 100.696 18.1279 100.597 18.3078C100.504 18.4789 100.416 18.6532 100.333 18.8308C100.257 19.0073 100.195 19.1974 100.147 19.4012C100.105 19.5961 100.105 19.832 100.147 20.1089L100.164 20.2242C100.17 20.2627 100.179 20.3006 100.193 20.3379C100.309 20.4306 100.407 20.5338 100.487 20.6477C100.575 20.7604 100.699 20.8321 100.861 20.8629C101.024 20.9014 101.19 20.9042 101.358 20.8712C101.533 20.837 101.706 20.8309 101.874 20.8529C102.233 20.7284 102.57 20.564 102.885 20.3595C103.207 20.1462 103.505 19.9051 103.779 19.636C103.82 19.5907 103.868 19.5442 103.924 19.4965C103.978 19.4411 104.021 19.3875 104.053 19.3356C104.086 19.2914 104.11 19.2445 104.126 19.1949C104.15 19.1442 104.174 19.0973 104.199 19.0542C104.246 18.945 104.3 18.8347 104.362 18.7232C104.424 18.6117 104.491 18.5074 104.563 18.4101C104.576 18.2352 104.602 18.0662 104.64 17.9032C104.678 17.7325 104.716 17.5656 104.754 17.4026C104.793 17.2396 104.819 17.0744 104.833 16.9072C104.855 16.7388 104.853 16.5661 104.827 16.3893C104.821 16.3508 104.811 16.3091 104.796 16.2641C104.789 16.2179 104.779 16.1762 104.766 16.1389C104.815 16.0451 104.831 15.9482 104.817 15.8483Z" fill="white"/>
</g>
<g filter="url(#filter3_d_30278_37131)">
<path d="M96.8373 16.429C96.8015 16.5052 96.7861 16.5861 96.7911 16.6718C96.7961 16.7576 96.8037 16.8351 96.8141 16.9043C96.8279 16.9966 96.8417 17.0888 96.8555 17.1811C96.8759 17.2646 96.8924 17.3486 96.905 17.4332L96.9309 17.6062C96.9236 17.6624 96.9086 17.7196 96.8859 17.7781C96.8632 17.8365 96.8482 17.8938 96.8408 17.9499C96.7758 18.2506 96.7645 18.5432 96.8071 18.8277L96.8106 18.8508C96.7859 18.9489 96.7601 19.0392 96.7332 19.1219C96.7139 19.2034 96.6947 19.2849 96.6754 19.3664C96.655 19.4402 96.6434 19.5206 96.6407 19.6075C96.6369 19.6867 96.6468 19.7795 96.6706 19.886C96.6032 20.1713 96.4978 20.4387 96.3543 20.6882C96.2096 20.93 96.07 21.1789 95.9353 21.435C95.783 21.5206 95.6451 21.6238 95.5217 21.7445C95.4059 21.8641 95.2957 21.9946 95.1911 22.136C94.9642 22.2486 94.7428 22.3722 94.5271 22.5067C94.3113 22.6412 94.1238 22.8068 93.9646 23.0036C93.8208 23.0409 93.6781 23.0858 93.5366 23.1384C93.3951 23.1911 93.2597 23.2585 93.1305 23.3407L92.9921 23.3615C92.9228 23.3718 92.8705 23.3639 92.8352 23.3378C92.7433 23.4066 92.6452 23.4605 92.541 23.4997C92.4356 23.5312 92.3291 23.555 92.2214 23.5711C92.083 23.5918 91.9434 23.6049 91.8027 23.6102C91.6685 23.6067 91.5305 23.6038 91.3886 23.6014C91.2956 23.5053 91.1758 23.4406 91.0293 23.4075C90.8817 23.3667 90.75 23.3274 90.6343 23.2897C90.3652 23.0155 90.1594 22.7436 90.0169 22.474C89.8732 22.1967 89.7204 21.8854 89.5587 21.54C89.558 21.4301 89.5693 21.3222 89.5928 21.2165C89.6152 21.1031 89.6133 20.9854 89.5872 20.8635C89.6658 20.4429 89.7924 20.0544 89.9671 19.698C90.1483 19.3328 90.3626 18.9784 90.6099 18.6347C90.603 18.5886 90.605 18.549 90.6158 18.5159C90.6342 18.4817 90.6312 18.435 90.6066 18.3758C90.6154 18.3823 90.6314 18.3838 90.6544 18.3804C90.716 18.3712 90.7521 18.35 90.7629 18.317C90.7725 18.2762 90.77 18.2334 90.7554 18.1884C91.0058 17.9701 91.2253 17.7289 91.4138 17.4648C91.6099 17.1995 91.8427 16.9681 92.1119 16.7706C92.1246 16.6979 92.1544 16.6345 92.2013 16.5803C92.2483 16.5261 92.2825 16.4659 92.3041 16.3998C92.5398 16.2938 92.7473 16.1566 92.9265 15.9882C93.1058 15.8199 93.2988 15.6652 93.5057 15.5241C93.6184 15.4365 93.7269 15.3731 93.8311 15.3339C93.9418 15.2859 94.0603 15.2367 94.1864 15.1864C94.2303 15.1641 94.2708 15.1462 94.3081 15.1328C94.3454 15.1193 94.3872 15.1092 94.4333 15.1023C94.5717 15.0815 94.7103 15.0883 94.8491 15.1226C94.9868 15.1492 95.1248 15.1521 95.2632 15.1314C95.3017 15.1256 95.3325 15.121 95.3555 15.1176C95.3851 15.1053 95.4147 15.093 95.4444 15.0807C95.5993 15.2226 95.783 15.3209 95.9956 15.3756C96.059 15.484 96.1278 15.576 96.202 15.6514C96.2839 15.7256 96.3658 15.7998 96.4476 15.8741C96.5284 15.9406 96.6031 16.0198 96.6719 16.1118C96.7472 16.1948 96.8024 16.3006 96.8373 16.429ZM95.7735 17.2015C95.7678 17.1631 95.7588 17.129 95.7465 17.0994C95.6661 17.0879 95.5884 17.068 95.5135 17.0399C95.4385 17.0119 95.3587 17.0041 95.2741 17.0168C95.2203 17.0248 95.1682 17.0444 95.1178 17.0756C95.1021 17.0229 95.0732 16.9879 95.0313 16.9706C94.9971 16.9521 94.9558 16.9386 94.9073 16.9302C94.8654 16.9128 94.8208 16.9038 94.7735 16.903C94.7328 16.8934 94.6947 16.8755 94.6594 16.8493C94.6271 16.7913 94.591 16.7338 94.551 16.6768C94.5176 16.6111 94.4639 16.568 94.3901 16.5476C94.3313 16.6272 94.2592 16.6969 94.1738 16.7569C94.0872 16.8091 93.9969 16.862 93.9026 16.9154C93.8161 16.9677 93.7307 17.0276 93.6465 17.0953C93.57 17.1617 93.5067 17.238 93.4567 17.3242L93.249 17.3552C93.2155 17.4467 93.16 17.5219 93.0823 17.5807C93.0034 17.6318 92.939 17.7004 92.889 17.7865C92.7751 17.8665 92.6713 17.9606 92.5774 18.069C92.4901 18.1686 92.404 18.2758 92.3189 18.3908C92.2328 18.498 92.1472 18.6091 92.0622 18.724C91.9849 18.8378 91.8987 18.9451 91.8037 19.0458C91.7359 19.2761 91.6526 19.4812 91.5537 19.6611C91.4614 19.8322 91.3735 20.0065 91.29 20.1841C91.2142 20.3606 91.1522 20.5507 91.1041 20.7545C91.0625 20.9494 91.0624 21.1853 91.1038 21.4621L91.1211 21.5775C91.1269 21.6159 91.1364 21.6538 91.1499 21.6911C91.266 21.7838 91.364 21.8871 91.4439 22.0009C91.5316 22.1136 91.6563 22.1854 91.8182 22.2162C91.9812 22.2547 92.1467 22.2575 92.3148 22.2244C92.4905 22.1903 92.6626 22.1842 92.831 22.2062C93.1897 22.0817 93.5268 21.9173 93.8422 21.7128C94.1641 21.4995 94.4621 21.2583 94.7364 20.9893C94.7768 20.9439 94.8249 20.8974 94.8806 20.8498C94.9352 20.7944 94.9783 20.7408 95.0099 20.6889C95.0426 20.6447 95.067 20.5978 95.0832 20.5482C95.107 20.4974 95.1315 20.4505 95.1565 20.4075C95.203 20.2983 95.2573 20.188 95.3192 20.0765C95.3812 19.965 95.4481 19.8606 95.52 19.7634C95.5332 19.5884 95.559 19.4195 95.5975 19.2564C95.6349 19.0857 95.6728 18.9189 95.7113 18.7559C95.7498 18.5928 95.7762 18.4277 95.7905 18.2604C95.8124 18.092 95.8102 17.9194 95.7837 17.7425C95.778 17.7041 95.7678 17.6623 95.7532 17.6174C95.7463 17.5712 95.7361 17.5295 95.7227 17.4922C95.7715 17.3984 95.7885 17.3015 95.7735 17.2015Z" fill="white"/>
</g>
<g filter="url(#filter4_d_30278_37131)">
<path d="M88.693 22.9907C88.7126 23.1215 88.6953 23.242 88.641 23.3523C88.5933 23.4538 88.5875 23.5726 88.6236 23.7088C88.5251 23.7864 88.4488 23.8804 88.3945 23.9907C88.3403 24.101 88.2904 24.2147 88.245 24.3315C87.7869 24.7382 87.2806 25.0852 86.7261 25.3726C86.1804 25.6666 85.5999 25.8596 84.9847 25.9517C84.9462 25.9574 84.9087 25.9434 84.8722 25.9095C84.8368 25.8834 84.8009 25.8534 84.7644 25.8195C84.7279 25.7857 84.6875 25.7524 84.6433 25.7197C84.6079 25.6935 84.5672 25.6839 84.521 25.6908C84.4672 25.6989 84.4266 25.7167 84.3993 25.7444C84.397 25.729 84.3947 25.7136 84.3924 25.6983C84.399 25.6894 84.4011 25.6773 84.3988 25.6619C84.385 25.5696 84.359 25.4752 84.321 25.3787C84.2841 25.2899 84.2588 25.1993 84.245 25.107C84.2289 24.9994 84.2349 24.9081 84.2629 24.8331L84.4014 24.8124C84.4783 24.8009 84.5508 24.7861 84.6188 24.768C84.6934 24.7412 84.773 24.7214 84.8576 24.7087C84.9422 24.6961 85.0226 24.7076 85.0987 24.7434C85.5194 24.6647 85.9078 24.528 86.2639 24.3332C86.6265 24.1295 86.9936 23.9291 87.3651 23.732C87.414 23.6382 87.4348 23.5407 87.4275 23.4396C87.4268 23.3296 87.4426 23.225 87.4749 23.1258C87.2496 22.9866 87.0263 22.8863 86.8048 22.8251C86.5899 22.7551 86.3502 22.7556 86.0856 22.8266C85.9091 22.7508 85.7275 22.719 85.5406 22.7313C85.3614 22.7424 85.1772 22.7463 84.9881 22.7432C84.9408 22.7424 84.8896 22.7422 84.8347 22.7426C84.7862 22.7341 84.7351 22.7339 84.6812 22.7419C84.6428 22.7477 84.6061 22.765 84.5711 22.7938C84.5426 22.8138 84.5389 22.8418 84.5601 22.878C84.5124 22.8222 84.4534 22.7957 84.383 22.7983C84.3192 22.7922 84.2608 22.7695 84.2077 22.7302C83.9593 22.7517 83.7377 22.7416 83.5427 22.7C83.3467 22.6507 83.1302 22.5966 82.8934 22.5377C82.8284 22.5239 82.7646 22.5177 82.7019 22.5192C82.6458 22.5119 82.5885 22.4969 82.53 22.4742C82.3812 22.4257 82.2559 22.3501 82.1541 22.2474C82.0522 22.1447 81.9679 22.0276 81.901 21.896C81.8253 21.758 81.7644 21.6138 81.7183 21.4634C81.6722 21.313 81.6279 21.1742 81.5852 21.0469C81.636 20.9135 81.6824 20.7769 81.7244 20.6369C81.7586 20.4981 81.7841 20.3528 81.8006 20.2009C81.8433 20.1709 81.8866 20.1448 81.9304 20.1225C81.9743 20.1002 82.0214 20.0735 82.0718 20.0424C82.0618 20.0282 82.0551 20.0095 82.0516 19.9865C82.0458 19.948 82.0516 19.9078 82.0689 19.8659C82.094 19.8229 82.0959 19.7833 82.0748 19.7471C82.2209 19.568 82.3588 19.3862 82.4885 19.2016C82.6247 19.0083 82.7355 18.803 82.8209 18.5858C82.9305 18.5301 83.0141 18.4586 83.0719 18.3713C83.1296 18.2841 83.1873 18.1968 83.245 18.1095C83.3015 18.0146 83.3675 17.93 83.4429 17.8558C83.5171 17.7739 83.6185 17.7155 83.7469 17.6806C83.7696 17.6222 83.8056 17.5735 83.8548 17.5347C83.9029 17.4882 83.9515 17.4455 84.0008 17.4067C84.05 17.3679 84.0948 17.3258 84.1352 17.2805C84.1756 17.2351 84.2021 17.1761 84.2148 17.1034C84.3379 17.085 84.4459 17.0452 84.539 16.9841C84.6398 16.9219 84.7361 16.8564 84.828 16.7876C84.92 16.7188 85.0124 16.6538 85.1055 16.5927C85.2063 16.5305 85.3182 16.4901 85.4412 16.4717C85.472 16.4671 85.5033 16.4664 85.5352 16.4694C85.566 16.4648 85.6012 16.4635 85.6408 16.4654C85.7027 16.5112 85.7471 16.5714 85.774 16.646C85.8074 16.7118 85.8343 16.7864 85.8546 16.8698C85.875 16.9533 85.8915 17.0373 85.9041 17.1219C85.9245 17.2053 85.9514 17.2799 85.9848 17.3457C85.9352 17.4868 85.8778 17.629 85.8128 17.7724C85.7555 17.9147 85.6666 18.0302 85.5462 18.119L85.5231 18.1224C85.4705 18.1382 85.4187 18.1341 85.368 18.1103C85.3173 18.0864 85.2611 18.0791 85.1996 18.0883C85.1611 18.094 85.1321 18.1102 85.1125 18.1367L85.0634 18.203C85.0504 18.2207 85.0296 18.2395 85.0011 18.2595C84.9804 18.2783 84.9458 18.2835 84.8973 18.275C84.7954 18.3296 84.7629 18.4013 84.7998 18.4901C84.656 18.5274 84.5398 18.5919 84.4513 18.6838C84.3617 18.768 84.2815 18.8625 84.2107 18.9675C84.1388 19.0647 84.0663 19.1582 83.9932 19.2477C83.919 19.3296 83.8247 19.383 83.7105 19.408C83.6143 19.6582 83.4833 19.8862 83.3175 20.0919C83.1594 20.2964 83.0356 20.5193 82.9459 20.7608C82.9782 20.8188 83.0033 20.8819 83.0214 20.95C83.0394 21.018 83.0619 21.0894 83.0888 21.164C83.1718 21.2459 83.2646 21.3146 83.3673 21.37C83.4776 21.4242 83.5841 21.479 83.6867 21.5344L83.7214 21.5293C83.8752 21.5062 84.022 21.5157 84.162 21.5577C84.3008 21.5919 84.4432 21.5981 84.5894 21.5763C84.6663 21.5648 84.7293 21.5396 84.7786 21.5008C84.9854 21.517 85.1873 21.5261 85.3841 21.5281C85.5887 21.5289 85.7921 21.5221 85.9943 21.5075C86.0966 21.508 86.1978 21.5007 86.2977 21.4857C86.4054 21.4696 86.5071 21.4662 86.6028 21.4755C86.6909 21.4859 86.7801 21.504 86.8704 21.5298C86.9596 21.5479 87.0494 21.5698 87.1397 21.5956C87.3281 21.646 87.5061 21.7059 87.6738 21.7752C87.8491 21.8433 88.008 21.9335 88.1506 22.0458C88.2921 22.1505 88.4101 22.2822 88.5046 22.441C88.598 22.5922 88.6608 22.7754 88.693 22.9907Z" fill="white"/>
</g>
<g filter="url(#filter5_d_30278_37131)">
<path d="M75.879 21.0083C75.8663 21.081 75.8276 21.1379 75.763 21.179C75.705 21.2113 75.6425 21.2403 75.5756 21.266C75.5086 21.2918 75.4473 21.3285 75.3915 21.3761C75.3423 21.4149 75.3158 21.4739 75.3119 21.5532L75.2905 21.5681C75.2598 21.5727 75.2356 21.5685 75.2179 21.5554C75.2067 21.5335 75.1962 21.5154 75.1862 21.5012C75.175 21.4793 75.1606 21.4618 75.1429 21.4487C75.1318 21.4268 75.1147 21.4175 75.0916 21.421C75.007 21.4337 74.9236 21.454 74.8413 21.4821C74.7667 21.5089 74.6909 21.5281 74.614 21.5396C74.4987 21.5569 74.3925 21.5571 74.2956 21.5401C74.2441 21.5636 74.2185 21.6028 74.2189 21.6577C74.227 21.7116 74.2091 21.7496 74.1652 21.7719C74.1291 21.7931 74.0841 21.8077 74.0302 21.8157C73.9753 21.8161 73.922 21.828 73.8705 21.8514L73.5151 21.9989C73.3967 22.0481 73.276 22.0819 73.1529 22.1003C73.0837 22.1107 73.0331 22.1143 73.0012 22.1112C72.8997 22.2208 72.7793 22.3096 72.6401 22.3776C72.4997 22.4379 72.3517 22.4994 72.1959 22.562C72.0467 22.6158 71.8992 22.6811 71.7535 22.7579C71.6154 22.8336 71.4973 22.9378 71.3992 23.0704C71.3354 23.0642 71.2804 23.0646 71.2343 23.0715C71.1343 23.0865 71.0493 23.1228 70.9793 23.1804C70.9082 23.2304 70.8332 23.2809 70.7543 23.332C70.7182 23.3532 70.6809 23.3666 70.6424 23.3724C70.604 23.3781 70.5628 23.3921 70.519 23.4144C70.4752 23.4367 70.4484 23.4682 70.4388 23.509C70.4357 23.5409 70.4172 23.5751 70.3834 23.6116C70.4248 23.8885 70.4932 24.1613 70.5884 24.4301C70.6826 24.6912 70.7503 24.9602 70.7918 25.2371L70.7987 25.2832C70.8336 25.4116 70.8943 25.5284 70.9808 25.6334C71.0661 25.7307 71.1174 25.837 71.1347 25.9524C71.1404 25.9908 71.1391 26.0343 71.1306 26.0827C71.3375 26.0989 71.4837 26.1832 71.5694 26.3355C71.6617 26.4789 71.7408 26.6401 71.8069 26.8189C71.8795 26.9888 71.9619 27.1456 72.0541 27.289C72.1541 27.4313 72.3146 27.5056 72.5357 27.5118C72.5626 27.5864 72.5862 27.6654 72.6065 27.7489C72.6257 27.8246 72.6411 27.901 72.6526 27.9779C72.6687 28.0855 72.6727 28.1911 72.6646 28.2945C72.6576 28.4056 72.6259 28.5087 72.5693 28.6036C72.4551 28.6286 72.3711 28.6451 72.3173 28.6531C72.2634 28.6612 72.1861 28.6963 72.0854 28.7586C71.9177 28.6893 71.7632 28.6024 71.6217 28.4977C71.4891 28.3996 71.3592 28.2933 71.232 28.1787C71.1113 28.0552 70.9906 27.9317 70.8699 27.8083C70.7481 27.6771 70.6197 27.5548 70.4848 27.4413C70.0998 27.6011 69.6987 27.7319 69.2815 27.8337C68.8708 27.9266 68.4578 28.0041 68.0426 28.0663C68.0295 28.0839 68.0076 28.0951 67.9768 28.0997C67.946 28.1043 67.9159 28.1127 67.8862 28.125C67.8632 28.1285 67.8412 28.1396 67.8205 28.1585C67.8063 28.1685 67.8053 28.1883 67.8176 28.2179C67.7591 28.1952 67.6947 28.1851 67.6244 28.1878C67.5605 28.1816 67.5017 28.1826 67.4479 28.1906C67.4094 28.1964 67.3716 28.206 67.3343 28.2194C67.2958 28.2252 67.2591 28.2425 67.2241 28.2713C66.9238 28.2612 66.6283 28.2307 66.3376 28.1799C66.0535 28.1202 65.7646 28.0809 65.4708 28.0619C65.4616 28.0004 65.4399 27.9604 65.4057 27.9419C65.3703 27.9158 65.3371 27.8775 65.3059 27.8271C64.953 27.6755 64.6438 27.4741 64.3782 27.2229C64.1202 26.9706 63.98 26.6378 63.9575 26.2244L63.8525 26.075C63.8341 25.952 63.8478 25.8595 63.8936 25.7976C63.8548 25.7484 63.7929 25.7026 63.7079 25.6603C63.761 25.5423 63.8059 25.4215 63.8424 25.2981C63.879 25.1747 63.899 25.0459 63.9025 24.9117C63.9045 24.8721 63.9032 24.8369 63.8985 24.8062C63.8939 24.7754 63.8965 24.7397 63.9061 24.6989C63.9146 24.6505 63.9301 24.597 63.9529 24.5386C63.9667 24.4736 63.9817 24.4163 63.9979 24.3667C64.0818 24.0868 64.179 23.8168 64.2894 23.5565C64.4064 23.2874 64.567 23.0471 64.7713 22.8357C64.7671 22.7027 64.7894 22.5893 64.8383 22.4954C64.886 22.394 64.9393 22.3034 64.9981 22.2239C65.0635 22.1354 65.1251 22.0476 65.1828 21.9603C65.2482 21.8719 65.2921 21.771 65.3144 21.6576C65.4486 21.5038 65.5835 21.3539 65.7189 21.2079C65.8619 21.0606 65.9747 20.8944 66.057 20.7091C66.1885 20.6422 66.3106 20.565 66.4233 20.4774C66.5349 20.382 66.6243 20.2704 66.6916 20.1424C66.8739 20.0993 67.0494 20.0377 67.2183 19.9574C67.3948 19.8759 67.583 19.8202 67.783 19.7903C67.8676 19.7777 67.9704 19.7819 68.0915 19.8031C68.2192 19.8155 68.3201 19.8593 68.3943 19.9347C68.4043 19.949 68.411 19.9676 68.4144 19.9907L68.4346 20.0466C68.4446 20.0609 68.4546 20.0751 68.4646 20.0893C68.4811 20.0947 68.5042 20.0913 68.5338 20.079C68.5591 20.2482 68.5658 20.4241 68.5538 20.6067C68.5407 20.7816 68.4603 20.9273 68.3126 21.0438C68.208 21.028 68.098 21.0287 67.9827 21.046C67.8289 21.069 67.6912 21.1211 67.5697 21.2021C67.4547 21.2744 67.3414 21.3582 67.2299 21.4535C67.1249 21.54 67.0166 21.6309 66.9051 21.7262C66.7924 21.8138 66.6691 21.8834 66.5353 21.9348C66.5291 21.9987 66.5224 22.0587 66.515 22.1148C66.5143 22.1621 66.5262 22.2153 66.5507 22.2746C66.5123 22.2803 66.481 22.2811 66.4567 22.2768C66.4391 22.2638 66.411 22.2601 66.3725 22.2658C66.3187 22.2739 66.2849 22.3104 66.271 22.3754C66.2648 22.4392 66.2569 22.4915 66.2473 22.5323C66.1104 22.6157 66.0006 22.7225 65.9179 22.8528C65.8417 22.9743 65.7711 23.1067 65.706 23.2501C65.6476 23.3847 65.5808 23.5166 65.5058 23.6457C65.4308 23.7749 65.3286 23.8806 65.1994 23.9628C65.1747 24.2181 65.1494 24.4696 65.1236 24.7172C65.1054 24.9637 65.0758 25.2118 65.0345 25.4618C65.0714 25.5506 65.0973 25.645 65.1123 25.745C65.1307 25.868 65.1359 25.9813 65.1277 26.0847C65.1754 26.1405 65.2248 26.2078 65.2759 26.2866L65.454 26.5312C65.514 26.6166 65.5728 26.6943 65.6304 26.7643C65.6958 26.8331 65.7544 26.8833 65.8063 26.9149C65.9001 26.9637 66.0395 27.0018 66.2244 27.0292C66.4082 27.0489 66.5779 27.106 66.7336 27.2007C66.749 27.1984 66.7682 27.1955 66.7913 27.192C66.8132 27.1809 66.8319 27.1742 66.8473 27.1719C66.9395 27.1581 67.043 27.1662 67.1575 27.1962C67.2721 27.2262 67.3448 27.239 67.3755 27.2343C67.8062 27.1699 68.2713 27.0728 68.7708 26.943C69.2692 26.8055 69.7274 26.6622 70.1454 26.5132C70.1492 26.434 70.1471 26.3675 70.1391 26.3136C70.1241 26.2137 70.0944 26.1198 70.0498 26.0322C70.0041 25.9368 69.9414 25.8597 69.8618 25.8008C69.8446 25.6855 69.8273 25.5701 69.8101 25.4547C69.8005 25.3382 69.7871 25.2223 69.7698 25.1069C69.741 24.9147 69.7028 24.712 69.6552 24.499C69.6076 24.286 69.5393 24.0918 69.4501 23.9164L69.427 23.9199C69.3271 23.9348 69.2388 23.9756 69.1623 24.0421C69.0923 24.0997 69.015 24.1349 68.9304 24.1475C68.8842 24.1544 68.8441 24.1486 68.8098 24.1302C68.7337 24.2516 68.6342 24.3491 68.5116 24.4225C68.3889 24.4959 68.2579 24.5666 68.1187 24.6346C67.9783 24.6949 67.8386 24.7591 67.6993 24.8271C67.5678 24.8939 67.4507 24.9783 67.348 25.0802C67.283 25.0663 67.2236 25.0634 67.1698 25.0715C67.116 25.0795 67.0627 25.0914 67.01 25.1072C66.965 25.1218 66.9124 25.1375 66.852 25.1544C66.6698 25.0401 66.5631 24.8792 66.5321 24.6715C66.5159 24.5639 66.5158 24.4578 66.5316 24.3532C66.5539 24.2398 66.5889 24.1323 66.6367 24.0308C66.6717 24.002 66.7161 23.9835 66.7699 23.9755C66.8226 23.9597 66.8753 23.944 66.928 23.9282C66.9795 23.9048 67.0189 23.8792 67.0462 23.8516C67.0812 23.8227 67.098 23.777 67.0964 23.7143C67.123 23.7339 67.1439 23.7426 67.1593 23.7403C67.1747 23.738 67.1895 23.7319 67.2037 23.7219C67.2179 23.7119 67.2328 23.7057 67.2481 23.7034C67.2635 23.7011 67.2762 23.7071 67.2862 23.7213C67.3039 23.7344 67.3139 23.7486 67.3162 23.764C67.6204 23.5376 67.9363 23.337 68.264 23.1622C68.5916 22.9874 68.9249 22.8235 69.2637 22.6706C69.6102 22.5165 69.9578 22.3701 70.3066 22.2314C70.6542 22.0851 70.9969 21.9316 71.3345 21.771C71.3814 21.7168 71.4339 21.6735 71.492 21.6412C71.5501 21.609 71.5987 21.5663 71.638 21.5133C71.6964 21.536 71.7641 21.5416 71.841 21.53C71.9487 21.5139 72.0611 21.4774 72.1784 21.4206C72.3023 21.3549 72.4019 21.2849 72.4773 21.2107C72.5092 21.2138 72.5367 21.2136 72.5597 21.2102L72.6405 21.1981C72.7943 21.1751 72.9331 21.1307 73.0569 21.065C73.1885 20.9982 73.3138 20.9165 73.4331 20.82L73.4908 20.8114C73.7292 20.7757 73.9597 20.7137 74.1823 20.6253C74.4127 20.5358 74.6509 20.4727 74.897 20.4358C75.2123 20.3887 75.5013 20.428 75.7638 20.5538L75.7845 20.6922C75.7937 20.7537 75.8024 20.8114 75.8104 20.8653C75.825 20.9102 75.8479 20.9579 75.879 21.0083Z" fill="white"/>
</g>
<g filter="url(#filter6_d_30278_37131)">
<path d="M61.5823 21.9215C61.5807 22.0161 61.5698 22.1003 61.5493 22.1741C61.5355 22.2391 61.5443 22.3243 61.5758 22.4296C61.5 22.4488 61.4425 22.485 61.4033 22.538C61.3706 22.5822 61.3429 22.6335 61.3202 22.692C61.3052 22.7493 61.2869 22.811 61.2653 22.8771C61.2503 22.9344 61.227 22.989 61.1955 23.0409C61.2985 23.3085 61.3751 23.584 61.4253 23.8674C61.4756 24.1508 61.5369 24.4286 61.609 24.7009C61.7004 25.0489 61.8105 25.3902 61.9392 25.7247C62.0744 26.0505 62.1685 26.3902 62.2214 26.744C62.2375 26.8516 62.2487 26.9522 62.2548 27.0456C62.2686 27.1379 62.283 27.234 62.2979 27.334C62.3071 27.3955 62.3169 27.4609 62.3273 27.5301C62.3442 27.5905 62.3572 27.6514 62.3664 27.713C62.3998 27.936 62.4024 28.1636 62.3743 28.3958C62.3538 28.6269 62.3449 28.8563 62.3475 29.0839C62.2679 29.1823 62.201 29.2867 62.1467 29.397C62.1001 29.5062 62.0486 29.6083 61.992 29.7032C61.9355 29.7982 61.8657 29.8833 61.7826 29.9586C61.7007 30.0417 61.5922 30.1051 61.4572 30.1489C61.4457 30.2292 61.4082 30.2938 61.3447 30.3426C61.2889 30.3903 61.2431 30.4522 61.2074 30.5283L61.1843 30.5317C60.992 30.5605 60.8227 30.5583 60.6762 30.5252C60.5297 30.4921 60.3897 30.4501 60.2563 30.3993C60.1306 30.3474 60.0005 30.2922 59.8659 30.2337C59.7314 30.1752 59.5799 30.135 59.4115 30.113C59.1697 29.9683 58.9448 29.8054 58.7369 29.6242C58.5278 29.4354 58.299 29.273 58.0507 29.1372C57.9738 28.9915 57.8818 28.8755 57.7745 28.7893C57.675 28.702 57.5731 28.5993 57.469 28.4813C57.4225 28.4332 57.3842 28.3878 57.3542 28.3451C57.332 28.3013 57.3008 28.2509 57.2609 28.194C57.2286 28.1359 57.1838 28.0993 57.1265 28.0843C57.0769 28.0682 57.0306 28.0476 56.9875 28.0226C56.8903 27.7934 56.7691 27.5874 56.6238 27.4047C56.4785 27.2221 56.3152 27.0499 56.1338 26.8884C56.1003 26.9799 56.0756 27.0779 56.0598 27.1825C56.0506 27.2782 56.0419 27.3778 56.0338 27.4813C56.0245 27.577 56.0081 27.6777 55.9846 27.7835C55.9677 27.8803 55.9381 27.9713 55.8957 28.0562L55.9009 28.0908C55.9067 28.1293 55.9255 28.1501 55.9574 28.1531C55.9893 28.1562 56.0082 28.177 56.0139 28.2155C56.0151 28.2231 56.0124 28.2314 56.0058 28.2403C56.007 28.2479 56.0081 28.2556 56.0093 28.2633C55.9754 28.2998 55.9504 28.3429 55.9343 28.3925C55.9258 28.4409 55.8914 28.4736 55.831 28.4905C55.8444 28.5278 55.854 28.5657 55.8598 28.6041L55.8753 28.708C55.9087 28.931 55.9152 29.158 55.8947 29.3891C55.8819 29.619 55.8928 29.8494 55.9273 30.0801L55.9498 30.23C55.9578 30.2839 55.9692 30.3333 55.9838 30.3783C56.006 30.4221 56.036 30.4648 56.0737 30.5063C56.1114 30.5479 56.1331 30.5879 56.1388 30.6263C56.1469 30.6802 56.1313 30.7336 56.092 30.7866C56.1516 30.817 56.2195 30.8501 56.2956 30.8859C56.3717 30.9217 56.4407 30.9625 56.5026 31.0083C56.5733 31.0606 56.6325 31.1146 56.6802 31.1704C56.729 31.2338 56.7592 31.304 56.7707 31.3809C56.7902 31.5117 56.7618 31.6103 56.6852 31.6768C56.6087 31.7433 56.5112 31.8011 56.3927 31.8503C56.282 31.8983 56.163 31.9436 56.0357 31.9863C55.9172 32.0355 55.8209 32.101 55.7467 32.1829L55.7121 32.188C55.6198 32.2018 55.5465 32.1853 55.4923 32.1384C55.4381 32.0914 55.3649 32.0749 55.2726 32.0887C55.0908 31.8721 54.9506 31.6179 54.8518 31.3261C54.7543 31.0419 54.6854 30.7652 54.6451 30.496C54.5956 30.1654 54.5769 29.8301 54.5889 29.4902C54.5932 29.1514 54.6135 28.8142 54.6498 28.4786C54.6784 28.1441 54.7152 27.8122 54.7603 27.4831C54.8119 27.1452 54.8559 26.8084 54.8921 26.4727L54.8985 26.4364C54.8927 26.3979 54.8772 26.3727 54.8518 26.3608C54.8341 26.3477 54.823 26.3258 54.8184 26.295C54.8161 26.2797 54.8188 26.2714 54.8265 26.2702C54.838 26.1899 54.8502 26.1134 54.8629 26.0407C54.8833 25.9669 54.8948 25.8865 54.8976 25.7996C54.9115 25.5774 54.9094 25.3536 54.8914 25.1283C54.88 24.8941 54.8576 24.6655 54.8242 24.4425C54.7985 24.2183 54.7728 23.9942 54.7471 23.77C54.728 23.537 54.721 23.3061 54.726 23.0773C54.7784 23.0066 54.8263 22.9326 54.8697 22.8553C54.9132 22.778 54.9732 22.7061 55.0498 22.6396C55.2047 22.6243 55.362 22.6244 55.5215 22.6398C55.6811 22.6552 55.8364 22.6949 55.9875 22.7588C56.1293 23.0757 56.2403 23.3971 56.3205 23.7232C56.4085 24.0482 56.5195 24.3696 56.6536 24.6877L56.6588 24.7223C56.6645 24.7607 56.6866 24.7771 56.7251 24.7713C56.7701 24.7567 56.8064 24.7631 56.8341 24.7904C56.8221 24.8158 56.8146 24.8444 56.8115 24.8763C56.8162 24.9071 56.8208 24.9378 56.8254 24.9686L56.8547 25.1647C56.8793 25.2239 56.9083 25.2864 56.9417 25.3522C56.9752 25.4179 57.0315 25.4528 57.1107 25.4566C57.186 25.697 57.2776 25.9152 57.3856 26.1113C57.4935 26.3075 57.6119 26.4942 57.7407 26.6715C57.8694 26.8488 58.0058 27.0249 58.15 27.1999C58.293 27.3673 58.4415 27.5455 58.5956 27.7347C58.8098 27.8521 59.0004 27.9965 59.1676 28.1681C59.3337 28.3319 59.4991 28.4919 59.664 28.6481C59.8355 28.7954 60.0194 28.9212 60.2159 29.0255C60.42 29.1286 60.6705 29.1737 60.9673 29.1607C61.0012 29.1242 61.0218 29.0779 61.0291 29.0217L61.0626 28.8516C61.0776 28.7943 61.0938 28.7447 61.1111 28.7028C61.1349 28.6521 61.1721 28.6111 61.2224 28.58C61.2056 28.3624 61.1882 28.1409 61.1702 27.9156C61.1599 27.6891 61.1782 27.4701 61.2252 27.2587C61.1764 27.1952 61.1445 27.1135 61.1295 27.0135C61.118 26.9366 61.111 26.863 61.1083 26.7926C61.1133 26.7211 61.1106 26.6507 61.1003 26.5815C61.0784 26.4354 61.0298 26.3208 60.9545 26.2377C60.9464 26.1839 60.9422 26.1295 60.9418 26.0745C60.9403 26.0118 60.9548 25.9507 60.9852 25.8911C60.9006 25.7465 60.8265 25.5925 60.7627 25.429C60.7066 25.2645 60.6653 25.0937 60.6389 24.9168C60.6239 24.8169 60.6199 24.7113 60.6269 24.6002C60.5635 24.4918 60.5126 24.3618 60.4742 24.2103L60.3572 23.7442C60.3177 23.585 60.2722 23.4385 60.2207 23.3047C60.1692 23.1709 60.0949 23.068 59.9976 22.996C60.0334 22.9199 60.0444 22.8357 60.0306 22.7434C60.0075 22.5896 59.9626 22.447 59.8957 22.3154C59.8289 22.1839 59.784 22.0412 59.7609 21.8874C59.7448 21.7798 59.7518 21.6687 59.7818 21.5541C59.9522 21.5365 60.1204 21.5309 60.2865 21.5375C60.4591 21.5353 60.6262 21.5221 60.7877 21.4979C60.843 21.5525 60.9044 21.5945 60.9716 21.6237C61.0389 21.6529 61.11 21.6816 61.185 21.7097C61.2588 21.7301 61.3294 21.7549 61.3966 21.7842C61.4716 21.8123 61.5335 21.8581 61.5823 21.9215Z" fill="white"/>
</g>
<g filter="url(#filter7_d_30278_37131)">
<path d="M52.8474 29.3614C52.8181 29.4287 52.7806 29.4933 52.7349 29.5552C52.6879 29.6094 52.6454 29.6669 52.6073 29.7276C52.5569 29.7587 52.4972 29.7795 52.4279 29.7898C52.3664 29.799 52.3049 29.8082 52.2434 29.8174C52.1884 29.8178 52.1346 29.8259 52.0819 29.8416C52.0357 29.8485 51.9996 29.8697 51.9734 29.905C51.9096 29.8988 51.8594 29.8788 51.8229 29.845C51.7852 29.8034 51.7274 29.7846 51.6493 29.7884C51.6174 29.7853 51.5866 29.7899 51.557 29.8022C51.4221 29.6887 51.2937 29.5664 51.1719 29.4353C51.0577 29.303 50.9486 29.1778 50.8444 29.0597C50.7941 28.7763 50.7279 28.4914 50.6457 28.2049C50.6277 28.1368 50.6058 28.0693 50.5801 28.0024C50.5543 27.9355 50.533 27.8719 50.5161 27.8115C50.5046 27.7346 50.4975 27.6609 50.4948 27.5906C50.4987 27.5114 50.4999 27.4404 50.4984 27.3778C50.4958 27.1501 50.4976 26.9258 50.5038 26.7047C50.51 26.4836 50.5118 26.2592 50.5092 26.0316C50.51 25.8271 50.4944 25.6171 50.4621 25.4018C50.4288 25.1788 50.3631 24.9763 50.2651 24.7944L50.2449 24.7384C50.2511 24.6746 50.259 24.6223 50.2686 24.5816C50.2848 24.532 50.2927 24.4797 50.2923 24.4247C50.295 24.3378 50.2666 24.2792 50.207 24.2488C50.2209 24.1838 50.2536 24.1396 50.3051 24.1161C50.3555 24.085 50.3794 24.0343 50.3767 23.9639C50.3798 23.932 50.3752 23.9012 50.3629 23.8716C50.4209 23.8393 50.4796 23.8109 50.5388 23.7863C50.6046 23.7529 50.6694 23.7393 50.7332 23.7454C50.8355 23.7459 50.9291 23.7672 51.0141 23.8096C51.0979 23.8442 51.179 23.8871 51.2574 23.9383C51.4357 24.289 51.5444 24.6737 51.5834 25.0925C51.6214 25.5035 51.6445 25.9207 51.6528 26.344C51.6611 26.7674 51.6875 27.1801 51.732 27.5823C51.7753 27.9769 51.8915 28.333 52.0805 28.6506L52.1053 28.6587C52.1449 28.6606 52.174 28.6445 52.1924 28.6103C52.2098 28.5684 52.2382 28.5484 52.2778 28.5503C52.3109 28.5611 52.3313 28.5659 52.339 28.5648C52.3927 28.714 52.4646 28.8526 52.5545 28.9807C52.6445 29.1088 52.7421 29.2357 52.8474 29.3614Z" fill="white"/>
</g>
<g filter="url(#filter8_d_30278_37131)">
<path d="M49.0497 30.0595C49.0297 30.1883 49.0366 30.3131 49.0704 30.4338C49.0519 30.4681 49.0279 30.4913 48.9983 30.5036C48.9686 30.5159 48.9396 30.532 48.9111 30.552C48.8815 30.5643 48.8569 30.5837 48.8373 30.6102C48.8242 30.6279 48.8294 30.6625 48.8528 30.7141C48.6014 30.7674 48.3672 30.8575 48.1503 30.9843C47.9334 31.1111 47.7215 31.2451 47.5145 31.3861C47.3934 31.3649 47.2865 31.3337 47.1939 31.2926C47.1012 31.2514 46.9884 31.2329 46.8554 31.2371C46.6855 30.9952 46.5216 30.7406 46.3637 30.4733C46.2123 30.1972 46.1147 29.913 46.071 29.6207C46.0387 29.4054 46.0478 29.2035 46.0983 29.0152C46.0637 28.7844 46.049 28.5547 46.0541 28.3259C46.0592 28.0971 46.0687 27.8716 46.0826 27.6494C46.103 27.4183 46.1158 27.1884 46.1209 26.9596C46.126 26.7308 46.1112 26.5011 46.0767 26.2704L46.0387 26.0166C46.0234 26.0189 46.007 26.041 45.9897 26.0829C45.9712 26.1171 45.9539 26.159 45.9377 26.2086C45.9281 26.2494 45.9185 26.2901 45.9089 26.3309C45.8992 26.3716 45.8911 26.3964 45.8846 26.4053C45.7688 26.5248 45.684 26.6672 45.6301 26.8326C45.5828 26.989 45.5266 27.139 45.4615 27.2824C45.378 27.46 45.2863 27.6349 45.1863 27.8071C45.0939 27.9782 44.9656 28.1193 44.8014 28.2303L44.8049 28.2534C44.8106 28.2919 44.8031 28.3205 44.7823 28.3393C44.7616 28.3582 44.7635 28.3972 44.7881 28.4564C44.605 28.5467 44.4375 28.6622 44.2856 28.8029C44.1414 28.9424 44.0287 29.1087 43.9475 29.3016C43.7994 29.3631 43.6613 29.4388 43.5333 29.5287C43.4117 29.6098 43.2875 29.6992 43.1606 29.7968C43.1037 29.8368 43.0441 29.885 42.9818 29.9415C42.9194 29.998 42.8548 30.0391 42.7879 30.0649C42.7298 30.0972 42.6476 30.1252 42.541 30.149C42.4422 30.1716 42.3357 30.1955 42.2215 30.2204C42.115 30.2442 42.0079 30.2642 41.9002 30.2803L41.6464 30.3183C41.608 30.324 41.5551 30.3123 41.4878 30.283C41.4206 30.2538 41.345 30.2218 41.2612 30.1872C41.1851 30.1514 41.1057 30.1201 41.023 30.0931C40.9392 30.0585 40.8616 30.0386 40.7901 30.0336C40.6986 29.8429 40.5837 29.6792 40.4453 29.5427C40.3135 29.3973 40.174 29.2531 40.0267 29.11C39.9607 28.9312 39.8781 28.747 39.7789 28.5574C39.6875 28.3666 39.5512 28.218 39.3702 28.1114C39.4006 28.0518 39.4106 27.9874 39.4002 27.9182C39.3876 27.8336 39.3563 27.7557 39.3063 27.6846C39.2563 27.6134 39.2244 27.5317 39.2106 27.4394C39.2014 27.3779 39.1984 27.3312 39.2015 27.2993C39.1307 27.4042 39.087 27.5326 39.0704 27.6845C39.0604 27.8275 39.064 27.9567 39.0812 28.0721C39.095 28.1644 39.1192 28.2472 39.1538 28.3207C39.093 28.4399 39.0632 28.5819 39.0643 28.7469C39.0731 28.9107 39.0867 29.0541 39.1051 29.1771C39.1281 29.331 39.1621 29.4792 39.207 29.6219C39.1024 29.7633 39.0633 29.9225 39.0898 30.0994C39.1047 30.1993 39.141 30.2843 39.1987 30.3543C39.2033 30.3851 39.199 30.4093 39.186 30.427C39.1729 30.4447 39.1554 30.4591 39.1335 30.4702C39.1192 30.4802 39.1017 30.4946 39.081 30.5135C39.0667 30.5235 39.0619 30.5438 39.0665 30.5746C39.0723 30.6131 39.0786 30.6554 39.0855 30.7015C39.1001 30.7465 39.1109 30.7921 39.1178 30.8382C39.1339 30.9459 39.1467 31.058 39.1563 31.1745C39.1659 31.291 39.1787 31.4031 39.1948 31.5107C39.2282 31.7337 39.2716 31.8924 39.325 31.9866C39.385 32.072 39.4492 32.1331 39.5176 32.1701C39.5937 32.2058 39.6737 32.2411 39.7575 32.2757C39.8413 32.3103 39.9314 32.3873 40.0279 32.5065C40.0152 32.5791 39.9815 32.6432 39.9269 32.6985C39.8788 32.745 39.8313 32.7954 39.7844 32.8496C39.744 32.8949 39.7086 32.9474 39.6782 33.007C39.6478 33.0666 39.6439 33.1458 39.6666 33.2446L39.6089 33.2532C39.5089 33.2682 39.4151 33.298 39.3274 33.3425C39.2397 33.3871 39.1459 33.4169 39.0459 33.4318C39.0229 33.4353 38.9992 33.4349 38.975 33.4307C38.9519 33.4341 38.9289 33.4376 38.9058 33.441L38.7801 33.3891C38.7382 33.3718 38.698 33.366 38.6595 33.3717C38.6211 33.3775 38.5722 33.3926 38.513 33.4172C38.3536 33.0873 38.2155 32.7423 38.0987 32.3824C37.9896 32.0213 37.9086 31.6639 37.8557 31.3101C37.8499 31.2717 37.8519 31.2321 37.8615 31.1913C37.8776 31.1417 37.9061 31.1217 37.9469 31.1314L37.9141 30.9122C37.8784 30.6738 37.8631 30.4402 37.8682 30.2114C37.8798 29.9738 37.8672 29.7319 37.8303 29.4858C37.82 29.4166 37.8058 29.348 37.7877 29.2799C37.7774 29.2107 37.7637 29.1459 37.7468 29.0856C37.7657 28.9491 37.7846 28.8126 37.8035 28.6761C37.8289 28.5307 37.8307 28.385 37.8089 28.2389C37.7996 28.1774 37.7772 28.106 37.7414 28.0249C37.7961 27.9696 37.8336 27.905 37.854 27.8312C37.8732 27.7496 37.8842 27.6654 37.8869 27.5785C37.8885 27.484 37.8868 27.3938 37.8818 27.308C37.8769 27.2223 37.8731 27.1442 37.8704 27.0739C37.9243 26.9086 37.9418 26.7369 37.923 26.5589C37.9043 26.3808 37.918 26.2097 37.9642 26.0456C37.9519 26.0159 37.94 25.9627 37.9285 25.8858C37.9054 25.732 37.9055 25.5747 37.9286 25.414C37.9583 25.2444 38.0437 25.1059 38.1848 24.9983C38.3313 25.0314 38.4969 25.0341 38.6814 25.0065C38.8583 24.98 39.0235 24.9278 39.1769 24.8498C39.2254 24.8583 39.2705 24.8712 39.3124 24.8885C39.3532 24.8981 39.3945 24.9116 39.4364 24.9289C39.4849 24.9374 39.5333 24.9458 39.5818 24.9543C39.6291 24.9551 39.6829 24.947 39.7433 24.9301C39.8535 25.1417 39.9529 25.3587 40.0412 25.5814C40.1373 25.8029 40.2185 26.0306 40.285 26.2644C40.3153 26.362 40.3353 26.4691 40.3448 26.5856C40.3621 26.701 40.3859 26.8075 40.4162 26.9052C40.4331 26.9656 40.461 27.0204 40.4998 27.0696C40.5375 27.1111 40.5763 27.1604 40.6163 27.2173C40.6562 27.2742 40.6897 27.34 40.7165 27.4146C40.7511 27.488 40.7732 27.583 40.7828 27.6995C40.8973 27.8868 41.0184 28.0652 41.1459 28.2349C41.2801 28.3956 41.4219 28.5552 41.5714 28.7137C41.6441 28.7264 41.7102 28.748 41.7698 28.7784C41.8282 28.8011 41.8709 28.8497 41.8978 28.9243C41.967 28.914 42.0303 28.9163 42.0876 28.9313L42.2923 28.9596C42.5707 28.8236 42.8215 28.6603 43.0445 28.4697C43.2753 28.2779 43.5211 28.1074 43.7818 27.9583C44.0707 27.577 44.3083 27.168 44.4945 26.7312C44.6796 26.2868 44.8653 25.8462 45.0515 25.4095L45.0136 25.1557C45.0562 25.1258 45.0907 25.0931 45.1168 25.0577C45.1495 25.0135 45.1916 24.9797 45.2432 24.9563C45.2371 24.8628 45.243 24.7715 45.2611 24.6823C45.2858 24.5843 45.3116 24.4939 45.3385 24.4113C45.372 24.3198 45.3984 24.2332 45.4176 24.1517C45.4357 24.0625 45.4379 23.9718 45.4241 23.8795C45.416 23.8257 45.4053 23.7801 45.3918 23.7428C45.4899 23.6102 45.6197 23.5318 45.7812 23.5076C45.935 23.4846 46.0946 23.5 46.2599 23.5539C46.4318 23.599 46.5915 23.6419 46.7391 23.6827C46.8513 23.8546 46.9422 24.0415 47.0117 24.2434C47.0878 24.4365 47.1496 24.6395 47.1973 24.8525C47.2449 25.0656 47.2848 25.2797 47.317 25.4951L47.4396 26.3141C47.4411 26.3768 47.4249 26.4264 47.3911 26.4629C47.3638 26.4906 47.3464 26.5325 47.3391 26.5886L47.3564 26.704C47.3621 26.7424 47.364 26.7814 47.3621 26.821C47.3863 26.9825 47.3924 27.1546 47.3804 27.3372C47.3753 27.566 47.3593 27.8004 47.3323 28.0403C47.3118 28.2714 47.3189 28.5023 47.3534 28.733C47.366 28.8176 47.3825 28.9016 47.4029 28.985C47.4232 29.0685 47.4513 29.1508 47.487 29.2319C47.4589 29.3069 47.4529 29.3982 47.469 29.5059C47.4875 29.6289 47.5239 29.7414 47.5785 29.8433C47.6396 29.9364 47.7084 30.0283 47.7849 30.1191C47.8926 30.103 47.9997 30.083 48.1062 30.0592C48.2127 30.0354 48.3236 30.0149 48.439 29.9976C48.5466 29.9815 48.6483 29.9781 48.7441 29.9873C48.8387 29.9889 48.9406 30.013 49.0497 30.0595Z" fill="white"/>
</g>
<g filter="url(#filter9_d_30278_37131)">
<path d="M35.4286 26.7552C35.3929 26.8313 35.3774 26.9123 35.3824 26.998C35.3874 27.0838 35.395 27.1612 35.4054 27.2304C35.4192 27.3227 35.433 27.415 35.4468 27.5073C35.4672 27.5907 35.4837 27.6748 35.4964 27.7594L35.5222 27.9324C35.5149 27.9885 35.4999 28.0458 35.4772 28.1043C35.4545 28.1627 35.4395 28.22 35.4322 28.2761C35.3671 28.5768 35.3558 28.8694 35.3984 29.1539L35.4019 29.177C35.3772 29.275 35.3514 29.3654 35.3245 29.448C35.3052 29.5295 35.286 29.6111 35.2667 29.6926C35.2463 29.7664 35.2348 29.8467 35.232 29.9336C35.2282 30.0128 35.2381 30.1057 35.2619 30.2122C35.1945 30.4975 35.0891 30.7649 34.9456 31.0144C34.8009 31.2562 34.6613 31.5051 34.5266 31.7611C34.3743 31.8468 34.2364 31.95 34.113 32.0707C33.9972 32.1902 33.887 32.3207 33.7824 32.4622C33.5555 32.5748 33.3341 32.6983 33.1184 32.8328C32.9026 32.9673 32.7151 33.133 32.5559 33.3298C32.4121 33.367 32.2694 33.412 32.1279 33.4646C31.9864 33.5172 31.851 33.5847 31.7218 33.6669L31.5834 33.6876C31.5141 33.698 31.4619 33.6901 31.4265 33.6639C31.3346 33.7327 31.2365 33.7867 31.1323 33.8259C31.0269 33.8574 30.9204 33.8812 30.8127 33.8973C30.6743 33.918 30.5347 33.931 30.394 33.9364C30.2598 33.9329 30.1218 33.9299 29.9799 33.9276C29.8869 33.8314 29.7671 33.7668 29.6207 33.7337C29.473 33.6929 29.3413 33.6536 29.2256 33.6159C28.9566 33.3416 28.7507 33.0697 28.6082 32.8001C28.4645 32.5229 28.3117 32.2116 28.15 31.8662C28.1493 31.7563 28.1606 31.6484 28.1841 31.5427C28.2065 31.4293 28.2046 31.3116 28.1785 31.1897C28.2571 30.7691 28.3837 30.3806 28.5584 30.0242C28.7396 29.659 28.9539 29.3046 29.2013 28.9609C29.1943 28.9148 29.1963 28.8751 29.2071 28.8421C29.2255 28.8079 29.2225 28.7612 29.1979 28.7019C29.2067 28.7085 29.2227 28.71 29.2458 28.7066C29.3073 28.6974 29.3434 28.6762 29.3542 28.6432C29.3638 28.6024 29.3613 28.5595 29.3467 28.5145C29.5971 28.2962 29.8166 28.055 30.0051 27.7909C30.2013 27.5257 30.434 27.2943 30.7032 27.0968C30.7159 27.0241 30.7457 26.9607 30.7926 26.9065C30.8396 26.8523 30.8738 26.7921 30.8954 26.726C31.1311 26.6199 31.3386 26.4827 31.5178 26.3144C31.6971 26.146 31.8901 25.9913 32.097 25.8503C32.2097 25.7627 32.3182 25.6993 32.4224 25.6601C32.5331 25.6121 32.6516 25.5629 32.7777 25.5126C32.8216 25.4903 32.8621 25.4724 32.8994 25.459C32.9367 25.4455 32.9785 25.4353 33.0246 25.4284C33.163 25.4077 33.3016 25.4145 33.4404 25.4488C33.5781 25.4753 33.7161 25.4783 33.8545 25.4576C33.893 25.4518 33.9238 25.4472 33.9468 25.4437C33.9764 25.4314 34.0061 25.4192 34.0357 25.4069C34.1906 25.5488 34.3743 25.6471 34.5869 25.7018C34.6503 25.8102 34.7191 25.9021 34.7933 25.9775C34.8752 26.0518 34.9571 26.126 35.0389 26.2002C35.1197 26.2668 35.1944 26.346 35.2632 26.4379C35.3386 26.521 35.3937 26.6268 35.4286 26.7552ZM34.3648 27.5277C34.3591 27.4892 34.3501 27.4552 34.3378 27.4256C34.2574 27.414 34.1797 27.3942 34.1048 27.3661C34.0298 27.338 33.95 27.3303 33.8654 27.343C33.8116 27.351 33.7595 27.3706 33.7091 27.4017C33.6934 27.3491 33.6645 27.3141 33.6226 27.2967C33.5884 27.2783 33.5471 27.2648 33.4987 27.2563C33.4567 27.239 33.4121 27.23 33.3649 27.2292C33.3241 27.2195 33.286 27.2017 33.2507 27.1755C33.2184 27.1174 33.1823 27.0599 33.1423 27.003C33.1089 26.9372 33.0553 26.8942 32.9814 26.8738C32.9226 26.9533 32.8505 27.0231 32.7651 27.083C32.6785 27.1353 32.5882 27.1882 32.494 27.2416C32.4074 27.2938 32.322 27.3538 32.2378 27.4214C32.1613 27.4879 32.098 27.5642 32.048 27.6503L31.8403 27.6814C31.8069 27.7729 31.7513 27.8481 31.6736 27.9069C31.5947 27.958 31.5303 28.0266 31.4803 28.1127C31.3665 28.1926 31.2626 28.2868 31.1688 28.3952C31.0814 28.4948 30.9953 28.602 30.9103 28.7169C30.8241 28.8242 30.7385 28.9353 30.6535 29.0502C30.5762 29.164 30.49 29.2712 30.395 29.372C30.3272 29.6022 30.2439 29.8073 30.145 29.9873C30.0527 30.1583 29.9648 30.3327 29.8813 30.5103C29.8055 30.6867 29.7435 30.8769 29.6954 31.0806C29.6538 31.2756 29.6537 31.5115 29.6951 31.7883L29.7124 31.9037C29.7182 31.9421 29.7278 31.98 29.7412 32.0173C29.8573 32.11 29.9553 32.2133 30.0352 32.3271C30.1229 32.4398 30.2476 32.5116 30.4095 32.5424C30.5725 32.5809 30.738 32.5836 30.9061 32.5506C31.0818 32.5165 31.2539 32.5104 31.4223 32.5323C31.781 32.4079 32.1181 32.2434 32.4335 32.039C32.7554 31.8257 33.0535 31.5845 33.3277 31.3155C33.3681 31.2701 33.4162 31.2236 33.4719 31.1759C33.5266 31.1206 33.5696 31.067 33.6012 31.0151C33.6339 30.9709 33.6583 30.924 33.6745 30.8744C33.6983 30.8236 33.7228 30.7767 33.7478 30.7337C33.7943 30.6245 33.8486 30.5141 33.9105 30.4027C33.9725 30.2912 34.0394 30.1868 34.1113 30.0896C34.1245 29.9146 34.1503 29.7456 34.1888 29.5826C34.2262 29.4119 34.2641 29.245 34.3026 29.082C34.3411 28.919 34.3675 28.7539 34.3818 28.5866C34.4038 28.4182 34.4015 28.2456 34.375 28.0687C34.3693 28.0302 34.3591 27.9885 34.3445 27.9435C34.3376 27.8974 34.3274 27.8557 34.314 27.8184C34.3629 27.7246 34.3798 27.6277 34.3648 27.5277Z" fill="white"/>
</g>
<g filter="url(#filter10_d_30278_37131)">
<path d="M29.8249 33.7502C29.8341 33.8117 29.8174 33.8575 29.7747 33.8875C29.7397 33.9163 29.74 33.9713 29.7758 34.0524C29.7154 34.0693 29.6662 34.1081 29.6281 34.1689C29.59 34.2296 29.5402 34.2646 29.4787 34.2738C29.4402 34.2795 29.4066 34.2649 29.3777 34.2299C29.3704 34.2861 29.3454 34.3291 29.3027 34.3591C29.2677 34.3879 29.2283 34.4135 29.1845 34.4358C29.1406 34.458 29.0974 34.4842 29.0547 34.5142C29.012 34.5441 28.9864 34.5833 28.9779 34.6318L28.9202 34.6404C28.828 34.6542 28.7606 34.7036 28.7183 34.7886C28.6837 34.8724 28.6318 34.9195 28.5626 34.9298C28.5395 34.9333 28.5235 34.9317 28.5147 34.9252C28.4774 34.9386 28.4655 34.964 28.4789 35.0013C28.4935 35.0463 28.4866 35.0788 28.4581 35.0988L28.4004 35.1074C28.2005 35.1373 28.003 35.2101 27.808 35.3258C27.613 35.4415 27.4159 35.5692 27.2167 35.7091C27.0252 35.8479 26.8248 35.9801 26.6156 36.1057C26.4152 36.2379 26.2058 36.3361 25.9874 36.4002C25.9482 36.4533 25.8957 36.4965 25.8299 36.53C25.773 36.5699 25.7072 36.6034 25.6326 36.6302C25.558 36.6571 25.4834 36.684 25.4088 36.7109C25.3431 36.7443 25.2867 36.7882 25.2398 36.8424C25.0498 36.8865 24.8628 36.9499 24.6786 37.0325C24.4943 37.1151 24.3096 37.1939 24.1242 37.2688C23.9477 37.3502 23.7618 37.4213 23.5664 37.482C23.3799 37.5492 23.1855 37.5901 22.9833 37.6046C22.9287 37.66 22.8646 37.7049 22.7912 37.7395C22.7266 37.7806 22.6669 37.8289 22.6123 37.8842C22.2901 37.8853 21.9696 37.8979 21.6509 37.922C21.3398 37.9449 21.028 37.9366 20.7154 37.8968C20.7119 37.8738 20.7019 37.8595 20.6854 37.8542C20.6689 37.8488 20.6485 37.844 20.6243 37.8397C20.6089 37.842 20.5924 37.8366 20.5747 37.8236C20.5581 37.8182 20.5553 37.7989 20.566 37.7659C20.5003 37.7993 20.4405 37.82 20.3867 37.8281C20.3098 37.8396 20.23 37.8319 20.1473 37.805C20.0723 37.7769 19.9891 37.7461 19.8976 37.7126C19.8138 37.678 19.7261 37.6439 19.6346 37.6104C19.5443 37.5846 19.4491 37.5792 19.3492 37.5942C19.2784 37.5418 19.2115 37.489 19.1485 37.4355C19.0931 37.3809 19.047 37.3091 19.0102 37.2203C18.9782 37.2172 18.9436 37.2224 18.9063 37.2358C18.8767 37.2481 18.8504 37.256 18.8273 37.2595C18.7812 37.2664 18.7558 37.2544 18.7512 37.2237C18.5724 37.1325 18.4387 37.0267 18.3499 36.9063C18.2611 36.786 18.1618 36.6475 18.0518 36.491C18.0207 36.4406 17.983 36.399 17.9388 36.3663C17.9035 36.3402 17.8746 36.3052 17.8524 36.2613C17.8101 36.189 17.7788 36.1112 17.7584 36.0277C17.7381 35.9443 17.7183 35.8647 17.6991 35.7889C17.6864 35.7043 17.6628 35.6253 17.6282 35.5519C17.6002 35.4696 17.5541 35.3978 17.4899 35.3367C17.4615 35.0422 17.4486 34.7453 17.451 34.4462C17.4611 34.1459 17.4827 33.8439 17.5159 33.5401C17.5271 33.4048 17.5427 33.2727 17.5627 33.1439C17.5828 33.0151 17.5984 32.883 17.6096 32.7477C17.6104 32.7004 17.6173 32.6679 17.6304 32.6502C17.65 32.6237 17.6669 32.6054 17.6812 32.5954L17.7221 32.5539C17.7352 32.5362 17.7433 32.5115 17.7464 32.4795L17.78 32.0735C17.8035 31.8105 17.8474 31.5523 17.9117 31.299C17.976 31.0456 18.0778 30.8063 18.2171 30.581C18.2037 30.3865 18.2189 30.1994 18.2628 30.0199C18.3133 29.8315 18.3725 29.6496 18.4407 29.4743C18.5076 29.2913 18.5752 29.1122 18.6433 28.9368C18.7114 28.7615 18.7586 28.5776 18.7848 28.3849L18.7698 28.3636C18.7652 28.3328 18.7783 28.3152 18.809 28.3105C18.8463 28.2971 18.8727 28.2892 18.888 28.2869C18.8773 28.1627 18.8887 28.0549 18.9222 27.9634C18.9622 27.863 19.0034 27.7704 19.0457 27.6854C19.0957 27.5993 19.1375 27.5105 19.171 27.419C19.211 27.3187 19.2256 27.2064 19.2149 27.0822C19.3484 26.9757 19.4559 26.8535 19.5374 26.7155C19.6255 26.5686 19.7059 26.4229 19.7787 26.2784C19.8579 26.125 19.9422 25.9787 20.0314 25.8396C20.1195 25.6927 20.2347 25.5693 20.377 25.4694C20.4086 25.4175 20.4103 25.3504 20.3823 25.2681C20.5942 25.0556 20.8167 24.8611 21.0498 24.6847C21.2829 24.5083 21.4971 24.3111 21.6925 24.0932L22.1078 24.031C22.1963 23.9391 22.302 23.884 22.4251 23.8656C22.5173 23.8518 22.6087 23.8578 22.699 23.8836C22.7971 23.9082 22.8886 23.9417 22.9735 23.984C23.065 24.0175 23.1571 24.0548 23.2497 24.096C23.3412 24.1295 23.431 24.1514 23.5191 24.1618C23.6209 24.2645 23.6987 24.3905 23.7525 24.5397C23.8128 24.6801 23.872 24.8127 23.93 24.9377C23.8919 25.1557 23.8818 25.3774 23.8998 25.6027C23.9166 25.8203 23.922 26.0397 23.9157 26.2608C23.8711 26.3304 23.8353 26.4065 23.8084 26.4891C23.7803 26.5641 23.7489 26.6435 23.7143 26.7273C23.6862 26.8023 23.6542 26.8778 23.6185 26.9539C23.5815 27.0224 23.5275 27.0816 23.4563 27.1315C23.4282 27.3638 23.3585 27.555 23.2474 27.7053C23.1362 27.8556 23.0323 28.0284 22.9357 28.2237C22.8319 28.3179 22.7146 28.3747 22.5838 28.3943C22.4762 28.4104 22.3766 28.4017 22.2851 28.3683C22.1924 28.3271 22.1058 28.2732 22.025 28.2067C21.9432 28.1324 21.8723 28.0526 21.8123 27.9673C21.7589 27.873 21.7137 27.7815 21.6769 27.6927C21.7065 27.5231 21.7704 27.372 21.8685 27.2394C21.9743 27.1056 22.0801 26.9719 22.1858 26.8381C22.2916 26.7043 22.3809 26.5652 22.4536 26.4206C22.5263 26.2761 22.5489 26.1115 22.5213 25.9269C22.5189 25.9116 22.5128 25.8968 22.5028 25.8825C22.5005 25.8671 22.4982 25.8518 22.4959 25.8364C22.4913 25.8056 22.4988 25.777 22.5184 25.7505C22.538 25.7239 22.5582 25.7013 22.579 25.6824L22.6396 25.6144C22.6592 25.5879 22.6667 25.5592 22.6621 25.5285C22.6575 25.4977 22.6375 25.4692 22.6022 25.4431C22.3134 25.5099 22.0978 25.5932 21.9555 25.6932C21.8209 25.7919 21.7182 25.8938 21.6474 25.9987C21.5767 26.1037 21.5136 26.2075 21.4582 26.3101C21.4093 26.4039 21.3262 26.4793 21.2089 26.5361C21.1951 26.6011 21.1685 26.6601 21.1293 26.7132C21.0966 26.7574 21.0606 26.806 21.0214 26.859C20.981 26.9044 20.9456 26.9569 20.9152 27.0165C20.8925 27.0749 20.883 27.1431 20.8869 27.2212L20.6792 27.2523C20.6588 27.3261 20.623 27.4022 20.5719 27.4806C20.5272 27.5502 20.4788 27.6204 20.4265 27.6911C20.3818 27.7607 20.3422 27.8374 20.3076 27.9212C20.2795 27.9961 20.2794 28.0748 20.3075 28.1571C20.2275 28.2005 20.1696 28.2603 20.1338 28.3364C20.1057 28.4113 20.0567 28.4777 19.9867 28.5353L19.997 28.6045C20.0062 28.666 20.0033 28.7255 19.9883 28.7827C19.9733 28.84 19.9781 28.8983 20.0027 28.9575C19.9231 29.0559 19.87 29.1739 19.8434 29.3116C19.8233 29.4404 19.7983 29.5621 19.7683 29.6766C19.6687 29.7466 19.6065 29.8306 19.5819 29.9286C19.5573 30.0266 19.5541 30.1372 19.5726 30.2602C19.4745 30.3929 19.3908 30.543 19.3215 30.7106C19.2522 30.8782 19.1912 31.0485 19.1385 31.2215C19.0935 31.3934 19.0528 31.5685 19.0166 31.7469C18.9804 31.9253 18.9387 32.0928 18.8913 32.2492L18.9414 32.5838C18.8521 32.7229 18.7971 32.8805 18.7763 33.0566C18.762 33.2239 18.7223 33.3792 18.6573 33.5226C18.6546 33.6095 18.6595 33.6953 18.6722 33.7799C18.6925 33.8633 18.7091 33.9473 18.7217 34.0319C18.7355 34.1242 18.7422 34.2215 18.7418 34.3238C18.7414 34.426 18.7283 34.5224 18.7025 34.6127C18.7505 34.7235 18.7943 34.8584 18.8338 35.0176C18.8722 35.1691 18.9227 35.3228 18.9854 35.4785C19.0468 35.6266 19.122 35.7608 19.2107 35.8812C19.2984 35.9938 19.411 36.0635 19.5486 36.0901C19.6047 36.2546 19.6968 36.3706 19.8248 36.4379C19.9617 36.5118 20.111 36.5641 20.2729 36.595C20.4347 36.6258 20.5993 36.6483 20.7666 36.6626C20.935 36.6846 21.0859 36.721 21.2193 36.7718C21.262 36.7418 21.3141 36.7222 21.3756 36.713C21.4371 36.7038 21.4921 36.7034 21.5405 36.7119C21.5967 36.7192 21.6567 36.726 21.7205 36.7321C21.8258 36.7007 21.9554 36.6734 22.1092 36.6504C22.2707 36.6262 22.4311 36.5944 22.5903 36.5548C22.7506 36.5229 22.8977 36.4813 23.0315 36.4298C23.1654 36.3783 23.2683 36.304 23.3402 36.2067C23.394 36.1986 23.4309 36.2088 23.4509 36.2373C23.4786 36.2646 23.5193 36.2742 23.5732 36.2662C23.627 36.2581 23.7055 36.2307 23.8085 36.1838C23.9127 36.1446 24.0196 36.0972 24.1292 36.0414C24.24 35.9934 24.3425 35.9427 24.4367 35.8893C24.5386 35.8347 24.6103 35.7886 24.6519 35.7509C24.6761 35.7552 24.6998 35.7556 24.7228 35.7521L24.8036 35.74C24.9112 35.7239 25.0083 35.6897 25.0949 35.6375C25.1814 35.5852 25.2796 35.5587 25.3896 35.558C25.7169 35.3282 26.0515 35.1208 26.3934 34.936C26.7441 34.7577 27.1004 34.5904 27.4623 34.434C27.4981 34.3579 27.5444 34.2999 27.6013 34.2599C27.6659 34.2188 27.7355 34.1848 27.8102 34.1579C27.8836 34.1233 27.9582 34.0964 28.034 34.0772C28.1086 34.0503 28.1787 34.0202 28.2445 33.9867C28.2872 33.9567 28.3216 33.9241 28.3478 33.8887C28.3805 33.8445 28.422 33.8068 28.4724 33.7757C28.5228 33.7446 28.5782 33.7206 28.6385 33.7037C28.7066 33.6856 28.7708 33.6682 28.8312 33.6513C28.8981 33.6255 28.9567 33.5971 29.0071 33.566C29.0652 33.5337 29.1094 33.4877 29.1398 33.4282C29.2544 33.4582 29.3695 33.4921 29.4853 33.5298C29.6087 33.5664 29.7163 33.6289 29.8082 33.7173L29.8249 33.7502Z" fill="white"/>
</g>
<defs>
<filter id="filter0_d_30278_37131" x="108.987" y="4.12805" width="20.9448" height="32.6583" filterUnits="userSpaceOnUse" color-interpolation-filters="sRGB">
<feFlood flood-opacity="0" result="BackgroundImageFix"/>
<feColorMatrix in="SourceAlpha" type="matrix" values="0 0 0 0 0 0 0 0 0 0 0 0 0 0 0 0 0 0 127 0" result="hardAlpha"/>
<feOffset dy="4"/>
<feGaussianBlur stdDeviation="4.5"/>
<feComposite in2="hardAlpha" operator="out"/>
<feColorMatrix type="matrix" values="0 0 0 0 0 0 0 0 0 0 0 0 0 0 0 0 0 0 0.25 0"/>
<feBlend mode="normal" in2="BackgroundImageFix" result="effect1_dropShadow_30278_37131"/>
<feBlend mode="normal" in="SourceGraphic" in2="effect1_dropShadow_30278_37131" result="shape"/>
</filter>
<filter id="filter1_d_30278_37131" x="99.0806" y="7.35596" width="25.8081" height="28.6948" filterUnits="userSpaceOnUse" color-interpolation-filters="sRGB">
<feFlood flood-opacity="0" result="BackgroundImageFix"/>
<feColorMatrix in="SourceAlpha" type="matrix" values="0 0 0 0 0 0 0 0 0 0 0 0 0 0 0 0 0 0 127 0" result="hardAlpha"/>
<feOffset dy="4"/>
<feGaussianBlur stdDeviation="4.5"/>
<feComposite in2="hardAlpha" operator="out"/>
<feColorMatrix type="matrix" values="0 0 0 0 0 0 0 0 0 0 0 0 0 0 0 0 0 0 0.25 0"/>
<feBlend mode="normal" in2="BackgroundImageFix" result="effect1_dropShadow_30278_37131"/>
<feBlend mode="normal" in="SourceGraphic" in2="effect1_dropShadow_30278_37131" result="shape"/>
</filter>
<filter id="filter2_d_30278_37131" x="89.6016" y="8.72742" width="25.3726" height="26.5295" filterUnits="userSpaceOnUse" color-interpolation-filters="sRGB">
<feFlood flood-opacity="0" result="BackgroundImageFix"/>
<feColorMatrix in="SourceAlpha" type="matrix" values="0 0 0 0 0 0 0 0 0 0 0 0 0 0 0 0 0 0 127 0" result="hardAlpha"/>
<feOffset dy="4"/>
<feGaussianBlur stdDeviation="4.5"/>
<feComposite in2="hardAlpha" operator="out"/>
<feColorMatrix type="matrix" values="0 0 0 0 0 0 0 0 0 0 0 0 0 0 0 0 0 0 0.25 0"/>
<feBlend mode="normal" in2="BackgroundImageFix" result="effect1_dropShadow_30278_37131"/>
<feBlend mode="normal" in="SourceGraphic" in2="effect1_dropShadow_30278_37131" result="shape"/>
</filter>
<filter id="filter3_d_30278_37131" x="80.5586" y="10.0807" width="25.3726" height="26.5295" filterUnits="userSpaceOnUse" color-interpolation-filters="sRGB">
<feFlood flood-opacity="0" result="BackgroundImageFix"/>
<feColorMatrix in="SourceAlpha" type="matrix" values="0 0 0 0 0 0 0 0 0 0 0 0 0 0 0 0 0 0 127 0" result="hardAlpha"/>
<feOffset dy="4"/>
<feGaussianBlur stdDeviation="4.5"/>
<feComposite in2="hardAlpha" operator="out"/>
<feColorMatrix type="matrix" values="0 0 0 0 0 0 0 0 0 0 0 0 0 0 0 0 0 0 0.25 0"/>
<feBlend mode="normal" in2="BackgroundImageFix" result="effect1_dropShadow_30278_37131"/>
<feBlend mode="normal" in="SourceGraphic" in2="effect1_dropShadow_30278_37131" result="shape"/>
</filter>
<filter id="filter4_d_30278_37131" x="72.5854" y="11.4646" width="25.1152" height="27.4883" filterUnits="userSpaceOnUse" color-interpolation-filters="sRGB">
<feFlood flood-opacity="0" result="BackgroundImageFix"/>
<feColorMatrix in="SourceAlpha" type="matrix" values="0 0 0 0 0 0 0 0 0 0 0 0 0 0 0 0 0 0 127 0" result="hardAlpha"/>
<feOffset dy="4"/>
<feGaussianBlur stdDeviation="4.5"/>
<feComposite in2="hardAlpha" operator="out"/>
<feColorMatrix type="matrix" values="0 0 0 0 0 0 0 0 0 0 0 0 0 0 0 0 0 0 0.25 0"/>
<feBlend mode="normal" in2="BackgroundImageFix" result="effect1_dropShadow_30278_37131"/>
<feBlend mode="normal" in="SourceGraphic" in2="effect1_dropShadow_30278_37131" result="shape"/>
</filter>
<filter id="filter5_d_30278_37131" x="54.708" y="14.7832" width="30.1709" height="26.9753" filterUnits="userSpaceOnUse" color-interpolation-filters="sRGB">
<feFlood flood-opacity="0" result="BackgroundImageFix"/>
<feColorMatrix in="SourceAlpha" type="matrix" values="0 0 0 0 0 0 0 0 0 0 0 0 0 0 0 0 0 0 127 0" result="hardAlpha"/>
<feOffset dy="4"/>
<feGaussianBlur stdDeviation="4.5"/>
<feComposite in2="hardAlpha" operator="out"/>
<feColorMatrix type="matrix" values="0 0 0 0 0 0 0 0 0 0 0 0 0 0 0 0 0 0 0.25 0"/>
<feBlend mode="normal" in2="BackgroundImageFix" result="effect1_dropShadow_30278_37131"/>
<feBlend mode="normal" in="SourceGraphic" in2="effect1_dropShadow_30278_37131" result="shape"/>
</filter>
<filter id="filter6_d_30278_37131" x="45.5854" y="16.4979" width="25.8081" height="28.6948" filterUnits="userSpaceOnUse" color-interpolation-filters="sRGB">
<feFlood flood-opacity="0" result="BackgroundImageFix"/>
<feColorMatrix in="SourceAlpha" type="matrix" values="0 0 0 0 0 0 0 0 0 0 0 0 0 0 0 0 0 0 127 0" result="hardAlpha"/>
<feOffset dy="4"/>
<feGaussianBlur stdDeviation="4.5"/>
<feComposite in2="hardAlpha" operator="out"/>
<feColorMatrix type="matrix" values="0 0 0 0 0 0 0 0 0 0 0 0 0 0 0 0 0 0 0.25 0"/>
<feBlend mode="normal" in2="BackgroundImageFix" result="effect1_dropShadow_30278_37131"/>
<feBlend mode="normal" in="SourceGraphic" in2="effect1_dropShadow_30278_37131" result="shape"/>
</filter>
<filter id="filter7_d_30278_37131" x="41.207" y="18.744" width="20.6401" height="24.161" filterUnits="userSpaceOnUse" color-interpolation-filters="sRGB">
<feFlood flood-opacity="0" result="BackgroundImageFix"/>
<feColorMatrix in="SourceAlpha" type="matrix" values="0 0 0 0 0 0 0 0 0 0 0 0 0 0 0 0 0 0 127 0" result="hardAlpha"/>
<feOffset dy="4"/>
<feGaussianBlur stdDeviation="4.5"/>
<feComposite in2="hardAlpha" operator="out"/>
<feColorMatrix type="matrix" values="0 0 0 0 0 0 0 0 0 0 0 0 0 0 0 0 0 0 0.25 0"/>
<feBlend mode="normal" in2="BackgroundImageFix" result="effect1_dropShadow_30278_37131"/>
<feBlend mode="normal" in="SourceGraphic" in2="effect1_dropShadow_30278_37131" result="shape"/>
</filter>
<filter id="filter8_d_30278_37131" x="28.7412" y="18.4973" width="29.3291" height="27.9437" filterUnits="userSpaceOnUse" color-interpolation-filters="sRGB">
<feFlood flood-opacity="0" result="BackgroundImageFix"/>
<feColorMatrix in="SourceAlpha" type="matrix" values="0 0 0 0 0 0 0 0 0 0 0 0 0 0 0 0 0 0 127 0" result="hardAlpha"/>
<feOffset dy="4"/>
<feGaussianBlur stdDeviation="4.5"/>
<feComposite in2="hardAlpha" operator="out"/>
<feColorMatrix type="matrix" values="0 0 0 0 0 0 0 0 0 0 0 0 0 0 0 0 0 0 0.25 0"/>
<feBlend mode="normal" in2="BackgroundImageFix" result="effect1_dropShadow_30278_37131"/>
<feBlend mode="normal" in="SourceGraphic" in2="effect1_dropShadow_30278_37131" result="shape"/>
</filter>
<filter id="filter9_d_30278_37131" x="19.1499" y="20.4069" width="25.3726" height="26.5295" filterUnits="userSpaceOnUse" color-interpolation-filters="sRGB">
<feFlood flood-opacity="0" result="BackgroundImageFix"/>
<feColorMatrix in="SourceAlpha" type="matrix" values="0 0 0 0 0 0 0 0 0 0 0 0 0 0 0 0 0 0 127 0" result="hardAlpha"/>
<feOffset dy="4"/>
<feGaussianBlur stdDeviation="4.5"/>
<feComposite in2="hardAlpha" operator="out"/>
<feColorMatrix type="matrix" values="0 0 0 0 0 0 0 0 0 0 0 0 0 0 0 0 0 0 0.25 0"/>
<feBlend mode="normal" in2="BackgroundImageFix" result="effect1_dropShadow_30278_37131"/>
<feBlend mode="normal" in="SourceGraphic" in2="effect1_dropShadow_30278_37131" result="shape"/>
</filter>
<filter id="filter10_d_30278_37131" x="8.45068" y="18.8584" width="30.3765" height="32.0762" filterUnits="userSpaceOnUse" color-interpolation-filters="sRGB">
<feFlood flood-opacity="0" result="BackgroundImageFix"/>
<feColorMatrix in="SourceAlpha" type="matrix" values="0 0 0 0 0 0 0 0 0 0 0 0 0 0 0 0 0 0 127 0" result="hardAlpha"/>
<feOffset dy="4"/>
<feGaussianBlur stdDeviation="4.5"/>
<feComposite in2="hardAlpha" operator="out"/>
<feColorMatrix type="matrix" values="0 0 0 0 0 0 0 0 0 0 0 0 0 0 0 0 0 0 0.25 0"/>
<feBlend mode="normal" in2="BackgroundImageFix" result="effect1_dropShadow_30278_37131"/>
<feBlend mode="normal" in="SourceGraphic" in2="effect1_dropShadow_30278_37131" result="shape"/>
</filter>
<linearGradient id="paint0_linear_30278_37131" x1="2.02438" y1="33.2354" x2="134.477" y2="13.7869" gradientUnits="userSpaceOnUse">
<stop stop-color="#FF16CD"/>
<stop offset="1" stop-color="#FF5EDC"/>
</linearGradient>
</defs>
</svg>
