<svg width="79" height="60" viewBox="0 0 79 60" fill="none" xmlns="http://www.w3.org/2000/svg">
<path fill-rule="evenodd" clip-rule="evenodd" d="M59.2501 29.6837C59.2501 46.0775 45.9865 59.3674 29.6251 59.3674C13.2636 59.3674 0 46.0775 0 29.6837C0 13.2898 13.2636 0 29.6251 0C45.9865 0 59.2501 13.2898 59.2501 29.6837ZM79.0003 29.6836C79.0003 35.1482 74.5791 39.5782 69.1253 39.5782C63.6715 39.5782 59.2503 35.1482 59.2503 29.6836C59.2503 24.219 63.6715 19.7891 69.1253 19.7891C74.5791 19.7891 79.0003 24.219 79.0003 29.6836Z" fill="#090446"/>
<path fill-rule="evenodd" clip-rule="evenodd" d="M19.75 29.6836C19.75 35.1482 15.3288 39.5782 9.87502 39.5782C4.4212 39.5782 0 35.1482 0 29.6836C0 24.219 4.4212 19.7891 9.87502 19.7891C15.3288 19.7891 19.75 24.219 19.75 29.6836ZM39.5001 29.6836C39.5001 35.1482 35.0789 39.5782 29.6251 39.5782C24.1713 39.5782 19.7501 35.1482 19.7501 29.6836C19.7501 24.219 24.1713 19.7891 29.6251 19.7891C35.0789 19.7891 39.5001 24.219 39.5001 29.6836ZM49.3751 39.5782C54.829 39.5782 59.2502 35.1482 59.2502 29.6836C59.2502 24.219 54.829 19.7891 49.3751 19.7891C43.9213 19.7891 39.5001 24.219 39.5001 29.6836C39.5001 35.1482 43.9213 39.5782 49.3751 39.5782ZM70.4807 26.6854V25.8346H73.0293V33.9532H70.6081V33.0781H70.5762C70.0665 33.7587 69.3178 34.1071 68.3621 34.1071C66.1639 34.1071 64.6028 32.4137 64.6028 29.902C64.6028 27.4227 66.1798 25.6807 68.2426 25.6807C69.1028 25.6807 69.8754 26.021 70.4408 26.6854H70.4807ZM67.1834 29.9101C67.1834 31.0525 67.8922 31.8223 68.8878 31.8223C69.8196 31.8223 70.5762 31.0687 70.5762 29.9101C70.5762 28.792 69.8515 27.9817 68.8957 27.9817C67.9241 27.9817 67.1834 28.7515 67.1834 29.9101Z" fill="white"/>
<path d="M13.7261 29.8251C13.7261 27.4129 12.061 25.6888 9.71223 25.6888C7.34734 25.6888 5.61792 27.4372 5.61792 29.8979C5.61792 32.3992 7.41974 34.099 9.80875 34.099C11.4819 34.099 12.7206 33.4272 13.4043 32.553L12.0369 31.0069C11.4819 31.6545 10.8303 31.9863 10.0822 31.9863C9.1572 31.9863 8.36086 31.5007 8.17586 30.5941H13.6617C13.6859 30.416 13.7261 30.0436 13.7261 29.817V29.8251ZM9.73636 27.7529C10.5086 27.7529 11.0314 28.2386 11.2003 29.0237L8.1839 29.0399C8.35282 28.2062 8.96415 27.7529 9.73636 27.7529Z" fill="#090446"/>
<path d="M29.3963 34.1071C31.5922 34.1071 32.6379 32.9982 32.6379 31.4926C32.6299 29.8818 31.6646 29.4608 29.8869 28.8133C29.1308 28.53 28.8332 28.3276 28.8332 28.1252C28.8332 27.8014 29.1791 27.7124 29.4043 27.7124C29.9513 27.7124 30.6511 27.9957 31.2222 28.5623L32.4449 26.7087C31.5118 26.0125 30.6028 25.6807 29.4123 25.6807C27.7151 25.6807 26.3879 26.6601 26.3879 28.2386C26.3879 29.8413 27.5623 30.5212 28.9056 30.9421C29.895 31.2578 30.1443 31.4197 30.1443 31.6383C30.1443 31.9216 29.8869 32.0835 29.4204 32.0835C28.6643 32.0835 27.9805 31.8002 27.3049 31.1688L26.0822 32.9091C26.9992 33.7105 28.1334 34.1071 29.3963 34.1071Z" fill="#090446"/>
<path d="M53.0212 25.8426L51.6939 30.1974H51.6618L50.4632 25.8426H48.4442L47.2618 30.1894H47.2216L45.9024 25.8426H43.3364L46.0633 33.9452H48.211L49.4336 29.4285H49.4578L50.7045 33.9452H52.8523L55.5791 25.8426H53.0212Z" fill="#090446"/>
</svg>
