<svg width="50" height="52" viewBox="0 0 50 52" fill="none" xmlns="http://www.w3.org/2000/svg">
<path d="M38.2407 15.4853L22.2332 47.8542C20.6111 51.1344 16.1402 50.7647 14.5619 47.2088L1.2694 17.304C0.928106 16.6793 0.742391 15.9833 0.727647 15.2735C0.712929 14.5638 0.869608 13.8607 1.1847 13.2228C1.49981 12.585 1.96423 12.0306 2.53944 11.6058C3.11465 11.1811 3.78403 10.898 4.49205 10.7802L33.7911 8.32132C37.2688 8.02925 39.8627 12.2051 38.2407 15.4853Z" fill="#FF16CD"/>
<path d="M44.7063 24.04L13.1537 46.3926C12.4319 46.9036 11.5812 47.2076 10.6957 47.271C9.81013 47.3344 8.92405 47.1547 8.13516 46.7518C7.34628 46.3489 6.68522 45.7384 6.2249 44.9877C5.76459 44.2369 5.52289 43.3751 5.52649 42.4972L5.66076 9.73035C5.66389 8.97604 5.84804 8.23316 6.19809 7.56278C6.54819 6.89257 7.05417 6.31408 7.67445 5.87478C8.29475 5.43564 9.01161 5.1482 9.76616 5.03638C10.5207 4.92458 11.2913 4.99144 12.0147 5.23134L43.4342 15.6538C44.274 15.9342 45.0195 16.4382 45.5884 17.1103C46.1575 17.7823 46.528 18.5964 46.6595 19.4631C46.791 20.3299 46.6783 21.2156 46.3338 22.0231C45.9891 22.8306 45.426 23.5284 44.7063 24.04Z" fill="#60D3FF"/>
<path d="M5.6572 10.6889L5.59017 27.023L13.9497 45.8248L28.2404 35.7041L38.2429 15.4864C38.4605 15.0408 38.6066 14.5645 38.6761 14.0746L23.8565 9.15838L5.6572 10.6889Z" fill="#37175C"/>
<path d="M25.4332 20.6863C26.5285 20.6863 27.4164 21.5742 27.4164 22.6695V22.8455C27.4164 23.9266 26.54 24.803 25.4589 24.803V24.803C24.3778 24.803 23.5014 25.6794 23.5014 26.7605V35.9157C23.5014 37.0203 22.606 37.9157 21.5014 37.9157H21.0713C19.9667 37.9157 19.0713 37.0203 19.0713 35.9157V18.6533C19.0713 17.3827 19.3289 16.3662 19.844 15.6546C20.3591 14.9431 20.9773 14.3841 21.5954 14.0283C22.3681 13.5709 23.2438 13.3167 24.1711 13.2151H27.3739C28.4785 13.2151 29.3739 14.1105 29.3739 15.2151V15.3319C29.3739 16.4364 28.4785 17.3319 27.3739 17.3319H25.871C25.2529 17.3319 24.8408 17.4335 24.4802 17.6368C24.1711 17.8401 23.9135 18.0434 23.759 18.2975C23.5529 18.5516 23.4499 18.9074 23.4499 19.2632V19.2632C23.4499 20.0491 24.087 20.6863 24.873 20.6863H25.4332Z" fill="white"/>
<path d="M15.3166 25.567C16.4212 25.567 17.3166 26.4624 17.3166 27.567V35.9173C17.3166 37.0219 16.4212 37.9173 15.3166 37.9173H14.4941C13.3896 37.9173 12.4941 37.0219 12.4941 35.9173V27.567C12.4941 26.4624 13.3896 25.567 14.4941 25.567H15.3166Z" fill="white"/>
<path d="M15.3166 25.567C16.4212 25.567 17.3166 26.4624 17.3166 27.567V35.9173C17.3166 37.0219 16.4212 37.9173 15.3166 37.9173H14.4941C13.3896 37.9173 12.4941 37.0219 12.4941 35.9173V27.567C12.4941 26.4624 13.3896 25.567 14.4941 25.567H15.3166Z" stroke="white"/>
<path d="M12.7139 19.7109V21.0068V22.3027C12.7139 22.6267 12.7685 22.8427 12.9324 22.9507C13.0963 23.0587 13.3149 23.1667 13.6427 23.1667H15.0633H16.4839C16.6174 23.1667 16.7328 23.1488 16.8337 23.1202C17.0878 23.0485 17.2938 22.8459 17.3696 22.593C17.3962 22.5044 17.4127 22.4076 17.4127 22.3027V21.0068V19.7109C17.4127 19.3869 17.3581 19.1709 17.1942 19.0629C17.0303 18.9549 16.8117 18.8469 16.4839 18.8469H15.0633H13.6427C13.5092 18.8469 13.3938 18.8648 13.2929 18.8934C13.0388 18.9652 12.8328 19.1677 12.757 19.4206C12.7304 19.5092 12.7139 19.606 12.7139 19.7109Z" fill="#FF16CD"/>
</svg>
